<mxfile host="65bd71144e">
    <diagram id="iD1nKSRP6cS0oYJ7W3Za" name="Page-1">
        <mxGraphModel dx="1768" dy="1225" grid="1" gridSize="10" guides="1" tooltips="1" connect="1" arrows="1" fold="1" page="1" pageScale="1" pageWidth="1100" pageHeight="850" math="0" shadow="0">
            <root>
                <mxCell id="0"/>
                <mxCell id="1" parent="0"/>
                <mxCell id="2" value="&lt;h1&gt;&lt;font style=&quot;font-size: 29px; color: rgb(0, 0, 153);&quot; face=&quot;Comic Sans MS&quot;&gt;A&lt;/font&gt;&lt;/h1&gt;" style="whiteSpace=wrap;html=1;aspect=fixed;strokeColor=#000099;strokeWidth=4;sketch=1;curveFitting=1;jiggle=2;fillColor=none;" parent="1" vertex="1">
                    <mxGeometry x="189" y="440" width="80" height="80" as="geometry"/>
                </mxCell>
                <mxCell id="3" value="&lt;h1&gt;&lt;font style=&quot;font-size: 29px; color: rgb(0, 0, 153);&quot; face=&quot;Comic Sans MS&quot;&gt;E&lt;/font&gt;&lt;/h1&gt;" style="whiteSpace=wrap;html=1;aspect=fixed;strokeColor=#000099;strokeWidth=4;sketch=1;curveFitting=1;jiggle=2;fillColor=none;" parent="1" vertex="1">
                    <mxGeometry x="429" y="440" width="80" height="80" as="geometry"/>
                </mxCell>
                <mxCell id="8" value="" style="edgeStyle=elbowEdgeStyle;endArrow=none;html=1;rounded=0;endSize=8;startSize=8;endFill=0;sketch=1;curveFitting=1;jiggle=2;strokeColor=#000099;" parent="1" edge="1">
                    <mxGeometry width="50" height="50" relative="1" as="geometry">
                        <mxPoint x="219" y="430" as="sourcePoint"/>
                        <mxPoint x="479" y="390" as="targetPoint"/>
                        <Array as="points">
                            <mxPoint x="219" y="300"/>
                        </Array>
                    </mxGeometry>
                </mxCell>
                <mxCell id="9" value="" style="endArrow=classic;html=1;sketch=1;curveFitting=1;jiggle=2;strokeColor=#000099;" parent="1" edge="1">
                    <mxGeometry width="50" height="50" relative="1" as="geometry">
                        <mxPoint x="480" y="390" as="sourcePoint"/>
                        <mxPoint x="479" y="430" as="targetPoint"/>
                    </mxGeometry>
                </mxCell>
                <mxCell id="14" value="" style="endArrow=classic;html=1;shadow=1;strokeColor=#000099;sketch=1;curveFitting=1;jiggle=2;" parent="1" edge="1">
                    <mxGeometry width="50" height="50" relative="1" as="geometry">
                        <mxPoint x="419" y="479.5" as="sourcePoint"/>
                        <mxPoint x="279" y="479.5" as="targetPoint"/>
                    </mxGeometry>
                </mxCell>
                <mxCell id="18" value="" style="edgeStyle=elbowEdgeStyle;endArrow=none;html=1;rounded=0;endSize=8;startSize=8;endFill=0;sketch=1;curveFitting=1;jiggle=2;strokeColor=#000099;startArrow=classic;startFill=1;" parent="1" edge="1">
                    <mxGeometry width="50" height="50" relative="1" as="geometry">
                        <mxPoint x="527" y="505" as="sourcePoint"/>
                        <mxPoint x="527" y="455" as="targetPoint"/>
                        <Array as="points">
                            <mxPoint x="547" y="655"/>
                        </Array>
                    </mxGeometry>
                </mxCell>
                <mxCell id="20" value="&lt;h2&gt;&lt;font style=&quot;color: rgb(0, 0, 153);&quot; face=&quot;Comic Sans MS&quot;&gt;e1&lt;/font&gt;&lt;/h2&gt;" style="text;html=1;align=center;verticalAlign=middle;resizable=0;points=[];autosize=1;strokeColor=none;fillColor=none;" parent="1" vertex="1">
                    <mxGeometry x="329" y="428" width="40" height="70" as="geometry"/>
                </mxCell>
                <mxCell id="21" value="&lt;h2&gt;&lt;font style=&quot;color: rgb(0, 0, 153);&quot; face=&quot;Comic Sans MS&quot;&gt;e2&lt;/font&gt;&lt;/h2&gt;" style="text;html=1;align=center;verticalAlign=middle;resizable=0;points=[];autosize=1;strokeColor=none;fillColor=none;" parent="1" vertex="1">
                    <mxGeometry x="549" y="445" width="40" height="70" as="geometry"/>
                </mxCell>
                <mxCell id="22" value="&lt;h2&gt;&lt;font style=&quot;color: rgb(0, 0, 153);&quot; face=&quot;Comic Sans MS&quot;&gt;a1&lt;/font&gt;&lt;/h2&gt;" style="text;html=1;align=center;verticalAlign=middle;resizable=0;points=[];autosize=1;strokeColor=none;fillColor=none;" parent="1" vertex="1">
                    <mxGeometry x="329" y="341" width="40" height="70" as="geometry"/>
                </mxCell>
                <mxCell id="40" value="" style="shape=image;verticalLabelPosition=bottom;labelBackgroundColor=default;verticalAlign=top;aspect=fixed;imageAspect=0;image=data:image/png,iVBORw0KGgoAAAANSUhEUgAAA4kAAAHyCAYAAABGVIt+AAAABHNCSVQICAgIfAhkiAAAABl0RVh0U29mdHdhcmUAZ25vbWUtc2NyZWVuc2hvdO8Dvz4AACAASURBVHic7N15dBVVuvfxJxANBITIHJIwhUlBBgVRQIY0EDBAEEFQUMEBRYTbLWCLNAI26AVRG5xwHq7IECJgVEaZmxmBAGFMmIIhARJAIAmG5P2Dl922kqo6U9U5Vd/PWr1WL7NP1XM4yT77V7Vr76CioqIiAQAAAABAREpYXQAAAAAAwH8QEgEAAAAACiERAAAAAKAQEgEAAAAACiERAAAAAKAQEgEAAAAACiERAAAAAKAQEgEAAAAACiERAAAAAKAQEgEAAAAACiERAAAAAKAQEgEAAAAACiERAAAAAKAQEgEAAAAACiERAAAAAKAQEgEAAAAACiERAAAAAKAQEgEAAAAACiERAAAAAKAQEgEAAAAACiERAAAAAKAQEgEAAAAACiERAAAAAKAQEgEAAAAACiERAAAAAKAQEgEAAAAACiERAAAAAKAQEgEAAAAACiERAAAAAKAQEgEAAAAACiERAAAAAKAEW10AANeknzov07/cIMn7T8mu/RmSeeai1SUFhCYNqskdDapJ3ZoVZMKITlaXAwAA4LeCioqKiqwuAoAxCYt3y0MjZltdRsBrUKeyLPxgoDSsU9nqUgAAAPwOIREIEE+O+VY+m7/N6jJs5ey2cVKhfGmrywAAAPArPJMIBICfNqYSEH3gyTGJVpcAAADgdwiJQACY/sUGq0uwpYXLU2TCjBVWlwEAAOBXCIlAANi+56TVJdhW8oFTVpcAAADgVwiJgJ87kXFefsm6YHUZtpW8n5AIAADwe4REwM+lHj9rdQm2lno82+oSAAAA/AohEQAAAACgEBIBAAAAAAohEQAAAACgEBIBAAAAAAohEQAAAACgEBIBAAAAAEqw1QUA8J3xw2OsLsE0a7YcldWb06wuAwAAIOAREgGbmzCik9UlmKLjwE+sLgEAAMAWmG4KAAAAAFAIiQAAAAAAhZAIAAAAAFAIiQAAAAAAhZAIAAAAAFAIiQAAAAAAhZAIAAAAAFAIiQAAAAAAhZAIAAAAAFAIiQAAAAAAhZAIAAAAAFAIiQAAAAAAhZAIAAAAAFAIiQAAAAAAhZAIAAAAAFAIiQAAAAAAhZAIAAAAAFAIiQAAAAAAhZAIAAAAAFAIiQAAAAAAhZAIAAAAAFAIiQAAAAAAhZAIAAAAAFAIiQAAAAAAhZAIAAAAAFAIiQAAAAAAhZAIAAAAAFAIiQAAAAAAhZAIAAAAAFAIiQAAAAAAhZAIAAAAAFAIiQAAAAAAhZAIAAAAAFAIiQAAAAAAhZAIAAAAAFAIiQAAAAAAhZAIAAAAAFAIiQAAAAAAhZAIAAAAAFAIiQAAAAAAhZAIAAAAAFAIiQAAAAAAhZAIAAAAAFAIiQAAAAAAhZAIAAAAAFAIiQAAAAAAhZAIAAAAAFAIiQAAAAAAhZAIAAAAAFAIiQAAAAAAhZAIAAAAAFAIiQAAAAAAhZAIAAAAAFAIiQAAAAAAhZAIAAAAAFAIiQAAAAAAhZAIAAAAAFAIiQAAAAAAhZAIAAAAAFAIiQAAAAAAhZAIAAAAAFAIiQAAAAAAhZAIAAAAAFAIiQAAAAAAhZAIAAAAAFAIiQAAAAAAhZAIAAAAAFAIiQAAAAAAhZAIAAAAAFAIiQAAAAAAhZAIAAAAAFAIiQAAAAAAhZAIAAAAAFAIiQAAAAAAhZAIAAAAAFAIiQAAAAAAhZAIAAAAAFAIiQAAAAAAhZAIAAAAAFAIiQAAAAAAhZAIAAAAAFAIiQAAAAAAhZAIAAAAAFAIiQAAAAAAhZAIAAAAAFAIiQAAAAAAhZAIAAAAAFCCrS4AAADATlIOZ8neQ5my91Cm1aX4jQZ1KkvDOpWlQe3KElr6JqvLAaCDkAgAAOAFG3ccl3+8vVxWbky1uhS/FVmtvPzP461l1FP3WV0KAA2ERAAAAA89NGK2JCzebXUZfi/91HkZPWWx/LQxVRZ/OsjqcgAUg2cSAQAAPPCvL/5NQHTRkrUHZdZ3O60uA0AxCIkAAABuyjp7Sd74eJ3VZQSkgSPnyeZdJ6wuA8ANEBIBAADclLRyn/ySdcHqMgLWF4nbrS4BwA3wTCIAx5swY4WIiAQFBUlRUdGf/r8rvHEMreN46/j+pEnDcKlbo6LUq1VRSpdi1UMElvXbjlldQkBLPnDK6hIA3AAhEYDjTXxnpdUlQERqRdwqk0d2kUd6NLW6FMCwpJX7rC4hoCXvJyQC/ojppgAAv3D0ZI4MeGGu/O+Ha6wuBTDs7LnLVpcQ0C5evmJ1CQBugJAIAPArY6YtleX/Pmx1GQAAOBYhEQDgd7oM+kx2pPxidRkAADgSIREA4Jc+mbfN6hIAAHAkQiIAwC+lHM6yugQAAByJkAgA8Et7D2VaXQIAAI5ESARgC+GVb7G6BHjZ6exLVpcAAIAjsU8iAFtodnu4zP5+l9VlAIAhHVrVkfHDY6wuw2smvrNSVm9Os7oMAF5CSARgCw3rVLa6BABwSYdWdawuwWsmvrPS6hIAeBHTTQHYQs+/3Ca9Ot9udRkAAAABj5AIwDYWvD9QwsqVsroMAACAgEZIBGArOdtfkR4xt1ldBgAAQMAiJAKwne8+fFTGPtdRomtUsLoUAACAgMPCNQBsadLfOsukv3WW09mX2G/PYqx6CABAYCEkArC1yhXK2GoFwUDEqocAAAQWppsCAAAAABRCIgAAAABAISQCAAAAABRCIgAAAABAISQCAAAAABRCIgAAAABAISQCAAAAABRCIgAAAABAISQCAAAAABRCIgAAAABAISQCAAAAABRCIgAAAABAISQCAAAAABRCIgAAAABAISQCAAAAABRCIgAAAABAISQCAAAAABRCIgAAAABAISQCAAAAABRCIgAAAABAISQCAAAAABRCIgAAAABAISQCAAAAABRCIgAAAABAISQCAAAAABRCIgAAAABAISQCAAAAABRCIgAAAABAISQCAAAAABRCIgAAAABAISQCAAAAABRCIgAAAABAISQCAAAAABRCIgAAAABAISQCAAAAABRCIgAAAABAISQCAAAAABRCIgAAAABAISQCAAAAABRCIgAAAABAISQCAAAAABRCIgAAAABAISQCAAAAABRCIgAAAABAISQCAAAAABRCIgAAAABAISQCAAAAABRCIgAAAABAISQCAAAAABRCIgAAAABAISQCAAAAABRCIgAAAABAISQCAAAAABRCIgAAAABAISQCAAAAABRCIgAAAABAISQCAAAAABRCIgAAAABAISQCAAAAABRCIgAAAABAISQCAAAAABRCIgAAAABAISQCAAAAABRCIgAAAABAISQCAAAAAJRgbx5swowVsmbLUW8e0hR3NY6Q2+tWkaYNq8ldjSOsLgc+kLz/lGzYcUx2H8iUlMNZVpcDAPidBcv2yq79GZJy+LSczr5kdTkwWceBn1hdgqPVr11J7qhfVRrUqSyd29S1uhz4Ca+GRBGR1ZvTvH1In/t9zUP63y0f/rOXhdXA2+b+kCyDX0qU3LzfrC4FAPA7B4+ckX+8vVwSFu+2uhRYKBDHjnby+3//h7s3lW/e7mdhNfAXTDf9g4/mbJGgei9bXQa8pOsTn0v/v84hIAKAn/ngm83SoMtbBETAj8z+fhfjYIgIIbFYM2dvtroEeGjCjBWydN0hq8sAAPzB+V/z5Lnxi6wuA0AxJsxYYXUJsBghsRhDX1kku/ZnWF0G3LQj5Rd545N1VpcBALiBF6cusboEABomvrNSZn230+oyYCFCooYfVh2wugS4aUdKhlzOZYopAPgjnkED/B+zsZyNkKhh5aZUq0uAm1jBFAD805mcS3LwyBmrywCgY9c+ZtQ5GSFRw08bCImBavuek1aXAAC4gT0HM60uAYAByQdOWV0CLERIBGyszV21rC4BAHADDWpXsroEr2rSoJrVJQDwIkIiYFOhpW+SNnfWtLoMAMANNIyubHUJXmW39wM4HSERsKmu99WX0NI3WV0GAOAGGtWranUJXlWvVkWrSwDgRYREwKbeejnO6hIAADcw+YUu0rlNXavL8KpOrevKXwe1sboMAF5CSARs6Os3H5KaEWFWlwEAuIGXh3awugSfeHtsnHRqba/wCzgVIRGwkdqRt8qC9wfKgJ7NrC4FAPAHQ/rfLUWHXrO6DJ9a/uUTMudf/aV0KR53AAJZsNUFAPBMdI0K0rlNXbm7aZQ80LmRhJUrZXVJAID/r0fMbdLxnjrSrmUtuatxhNXlmKJfXBO5LbqKLF1/SNZtPSprtx6R87/mWV0WABd4NSROGNFJJozo5M1DekXHgZ/I6s1pVpeBAGH3q7wAEKhWff2UdGhVx+oyYECThtWkScNqMvqp+6wuxfEYB8MdTDcFAAAAACiERAAAAACAQkgEAAAAACiERAAAAACAQkgEAAAAACiERAAAAACAQkgEAAAAACiERAAAAACAQkgEAAAAACiERAAAAACAQkgEAAAAACiERAAAAACAQkgEAAAAACiERAAAAACAQkgEAAAAACiERAAAAACAQkgEAAAAACiERAAAAACAQkgEAAAAACiERAAAAACAQkgEAAAAACiERAAAAACAQkgEAAAAACiERAAAAACAQkgEAAAAACiERAAAAACAQkgEAAAAACiERAAAAACAQkgEAAAAACiERAAAAACAQkgEAAAAACiERAAAAACAQkgEAAAAACiERAAAAACAQkgEAAAAACiERAAAAACAQkgEAAAAACiERAAAAACAQkgEAAAAACiERAAAAACAQkgEAAAAACiERAAAAACAQkgEAAAAACiERAAAAACAQkgEAAAAACiERAAAAACAQkgEAAAAACiERAAAAACAQkgEAAAAACiERAAAAACAQkgEAAAAACiERAAAAACAQkgEAAAAACiERAAAAACAQkgEAAAAACiERAAAAACAQkgEAAAAACiERAAAAACAQkgEAAAAACiERAAAAACAQkgEAAAAACiERAAAAACAQkgEAAAAACiERAAAAACAQkgEAAAAACiERAAAAACAQkgEAAAAACiERAAAAACAQkgEAAAAACiERAAAAACAQkgEAAAAACiERAAAAACAQkgEAAAAACiERAAAAACAQkgEAAAAACiERAAAAACAQkgEAAAAACiERAAAAACAQkgEAAAAACiERAAAAACAQkgEAAAAACiERAAAAACAQkgEAAAAACiERAAAAACAQkgEAAAAACjBVhcAAAAAwP90HPiJ1SXADeOHx0iHVnU8OgYhEQAAAMCfrN6cZnUJcMP44TEeH4PppgAAAAAAhZAIAAAAAFAIiQAAAAAAhZAIAAAAAFBYuEYHqzoBgHXogwEAMB8hUQerOgGAdeiDAQAwH9NNAQAAAJtq0qCa1SUgABESAQAAAJtqGF3Z6hIQgAiJAAAAgE3Vq1XR6hIQgAiJAAAAgE11al1X/jqojdVlIMAQEgEAAAAbe3tsnHRqXdfqMhBACIkAAACAzS3/8gl555UeVpeBAOGIkFi/diWrS0CAuLNRdatLAGyHPhjeUiviVqtLAALa84/eK7Pf7i+Det8lLe+IlDKlb7a6JPgpR+yTeEf9qlaXgAARc2+01SUAtkMfDG+oWqms1IokJAKe6t+9ifTv3sTqMuDnHHEnsUEdlv6FMX8hJAJeRx8Mb7i3eQ2rSwAAx3BESOzcpq70iLnN6jLg5158up10bVff6jIA2+ncpq480ecuq8tAgJv8QherSwAAxwgqKioqsroIM+RfuSqlGo2zugz4sSv7/ik3BZe0ugzAtirfPVnO5FyyugwEoPHDY2TCiE5WlwEAjuGIO4kiIiE3l5QzW/8hfbvdYXUp8DMN6lSWfUv/RkAEfOz0lrEy/LF7rS4DAealZ9oTEAHAZI65k/h7Xy3YISs2HJZd+zIk+cApq8uBBZo0qCZ3NKgmdWtWYPABmOzrRTtl2fpD9MG4oepVysldjSPktujKMjC+mdzRoJrVJQGA4zgyJAIAAAAAbswx000BAAAAAPoIiQAAAAAAhZAIAAAAAFAIiQAAAAAAhZAIAAAAAFAIiQAAAAAAhZAIAAAAAFAIiQAAAAAAhZAIAAAAAFAIiQAAAAAAhZAIAAAAAFAIiQAAAAAAhZAIAAAAAFAIiQAAAAAAhZAIAAAAAFAIiQAAAAAAhZAIAAAAAFAIiQAAAAAAhZAIAAAAAFAIiQAAAAAAhZAIAAAAAFAIiQAAAAAAhZAIAAAAAFAIiQAAAAAAhZAIAAAAAFAIiQAAAAAAhZAIAAAAAFAIiQAAAAAAhZAIAAAAAFAIiQAAAAAAhZAIAAAAAFAIiQAAAAAAhZAIAAAAAFAIiQAAAAAAhZAIAAAAAFAIiQAAAAAAhZAIAAAAAFAIiQAAAAAAhZAIAAAAAFAIiQAAAAAAhZAIAAAAAFAIiQAAAAAAhZAIAAAAAFAIiQAAAAAAhZAIAAAAAFAIiQAAAAAAhZAIAAAAAFAIiQAAAAAAhZAIAAAAAFAIiQAAAAAAhZAIAAAAAFAIiQAAAAAAhZAIAAAAAFAIiQAAAAAAhZAIAAAAAFAIiQAAAAAAhZAIAAAAAFAIiQAAAAAAhZAIAAAAAFAIiQAAAAAAhZAIAAAAAFAIiQAAAAAAhZAIAAAAAFAIiQAAAAAAhZAIAAAAAFAIiQAAAAAAhZAIAAAAAFAIiQAAAAAAhZAIAAAAAFCCrS4AvrN161bZvHmzZGZmSnZ2tmRnZ8vZs2clOztbzp07J2XKlJEyZcpI2bJlpUyZMlKpUiVp2rSpNG/eXJo3by6hoaE+re/cuXOyf/9+n57DLCVLlpSWLVuacq69e/dKcnKyJCcny5EjRyQnJ0cuXLggFy5ckPz8fClfvryUKVNGQkNDpUyZMlK7dm1p27atdOjQQcLCwkyp0ZtycnLk559/lj179sju3bslKytLvd8LFy5I6dKl1e9ymTJlJCwsTFq0aCHt2rWTZs2aWV2+W44ePSq7du2SvXv3SkpKivqMz58/L5cvX5ayZctKaGio+tutXLmytG3bVu677z6pXbu21+vhb9V1p0+fltWrV8vBgwclOztbcnJyVP+bkZEhIiJhYWHqMyxXrpxER0dL06ZN5a677pI6der4vEbYy969e+XXX3+1ugyvqFGjhlSvXt3n5/G3vtbXcnNzZf369ZKcnCynT59W48Hr///SpUtSrly5//pOrV69urRo0UKaNWsmTZs2tfotwERBRUVFRVYXYaZRo0bJwoULi/35pEmTpH///iZW5D2nT5+WlStXyrp162T9+vVy8eJFj47XqFEj6d27tzz00ENSunRpL1X5H+vXr5dBgwZ5/bhWKF26tOzevdsnxz579qwsX75c1qxZI+vXr5fc3Fy3j9W4cWOJiYmRfv36SdWqVb1YpXdt3bpVVq9eLT/99JMcPnzY7eOEhYVJmzZtJC4uTrp06eLFCr0rNzdX1q5dK2vXrpUVK1bI2bNn3T5WeHi4dOrUSfr06SONGjXySn38rRqzdetWWbNmjaxZs0b27dvn0bHCwsKkffv28sQTT3jtczRbQkKCjBkzptif9+jRQ95++20TK/I9K8cY/fr1k+3bt/vk2Gb7+9//Lk8//bTXj+vvfa0vHDx4UL3nDRs2eHSskJAQadGihfTv31+6devmpQrN5cR+yV2OCom5ubnSokULyc/PL7ZNs2bNZP78+SZW5bns7Gx54403JDExUQoLC71+/LCwMOnfv7889thjUqVKFa8dl4GntrNnz8q0adN88rkGBwdLt27d5KmnnvKrL7cff/xRpk2bJsePH/f6sWvWrCmPP/649O3b1ycXPdzx22+/yaeffiozZ870+KLOjbRs2VIGDRokXbp0kaCgILePw9+qtsWLF8uUKVMkPT3dq8e9rlWrVvLkk09Kx44dPfoczda/f3/Ztm1bsT8PCQmRjRs3Srly5UysynesHmMQEosXKH2tNx08eFDGjRvns9+JWrVqyeDBg+XBBx+UUqVK+eQcvuC0fskTjnomcdGiRZqdt4jIzp07JTU11aSKPFNQUCAfffSRxMTESEJCgk8Cosi1qWYzZ86UmJgY+fjjj312HvzHjBkzpEOHDj77XAsKCiQpKUni4+Nl0KBBcubMGa+fwxXJycnSp08fGTFihE8CoojIsWPH5NVXX5V7771XEhISfHIOV3z33XcSExMj06ZN88mgReTana1hw4ZJp06dJDk52SfncLKDBw/KI488IsOHD/dZQBQR2bx5swwZMkT69OkTMN9P6enpmgMxEZH8/HxJSkoyqSLfs9sYwy6c1tdmZ2fLyy+/LN27d/fpRYOjR4/K+PHjJSYmRlatWuWz83iTE/slTzgqJBq9ejd37lwfV+K5FStWSGxsrEydOtVnnd4f5eXlyZQpU6R37958yflIamqqdOvWTWbMmOHRtFJXrF+/Xnr27OmzKXhaCgsL5b333pO+ffvKzp07TTnnxYsXZcyYMTJ+/Hi5evWqKef8vQsXLsjQoUPlhRdeUM+m+dqxY8ekX79+8u2335pyPrs7d+6cjBs3Tnr06CFbtmwx7by7du2SHj16yMyZM/3+Yt3s2bMNtfOHCzbeYqcxhh04ra+9evWqfPrpp/KXv/xF5s2bZ1ofkZWVJU8//bSMGjVKzp8/b8o53eXEfskTjgmJqamphgehCxYs8Osv4GnTpsmzzz4rx44ds+T8e/bskdjYWK60eNncuXOlV69ecujQIdPPnZWVJQ899JCpX2xZWVnyyCOPyNtvv21JWJs1a5b069fPo2dSXLVjxw6Ji4uT5cuXm3bO63777Td58cUXLQvHdnHixAnp3r27zJ4925J/xytXrsi0adPkkUcekcuXL5t+fiMKCwtl3rx5htru2bPHFhcd7TTGsAOn9bX5+fkyePBgef311y1bvGjhwoXSrVs3S8YwRjixX/KUY0Ki0V8MkWurKVrRsRgxffp0mTlzptVliMi1B/SXLl1qdRm2MGnSJBk7dqxpdw9v5PoXm9ErbZ5IT0+X+Ph43WkfvrZz50556KGH5Ny5cz4/1+rVq6V///6mXdEuzqxZs2T48OHioMfRvSYjI0MefvhhOXXqlNWlyLZt2+Sxxx6ztM8ozurVqyUnJ8dw+2+++caH1ZjDLmMMO3BaX/vbb7/JU0895fGiNN6QlZUlAwYMkCNHjlhdyp84sV/ylCO2wCgsLHT5DkliYqLExsb6qCL3vP/++/LOO++4/LpSpUrJnXfeKRERERIRESHh4eFStWpVOXfunJw7d07Onj0rBw4ckMOHD0taWprh4169elWGDRsm77//vl+vHOnv3nrrLfniiy9cft2tt94qzZs3l+rVq0tkZKRERERIaGionD17Vs6dOycnT56UzZs3u7x1wbhx46RixYo++0zT09Olf//+cvr0aZdf26RJE6ldu/Z//S5funRJcnJyJCcnR3bt2iWbNm1y6Q7LsWPHZMiQIfLVV1/57OH71atXy1NPPeXy60qVKiXNmjWTqKgoiYqKkurVq0ulSpXUsuVZWVmyfft22bp1q0vHXbZsmbz22msyduxYl2tyKk8CYt26daVu3boSFRUlVatWlRo1akhRUZHaGiMzM1NSUlJk3759Lj0+sHPnTnniiSfks88+85vFmESufX+64ttvv5UxY8ZIcHBgDknsMsawAyf2tUOHDpWNGze6/LrrY4jw8HCJiIiQ6tWrS1hYmJw5c0ZycnLkzJkzsm/fPjlw4IBkZmYaPm52drY88sgjMnv2bKlVq5bLdfmK0/olb3DE6qbLli2T5557zqXXlChRQjZt2iQVKlTwUVWu0Vuy948iIiKkW7du0q5dO2ndurXh12VnZ0tCQoLMnTvX8AIiISEhkpSU5Bf7euXn5+uu1hkXFyfTp083qSJtc+fOdenLo379+tK1a1dp37694f2Kzp49KytWrJCvv/7a8LL8ISEh8vXXX0vz5s0N12ZEbm6u9OjRQ44ePWr4NfHx8dKuXTtp37694X0et23bJgkJCfLDDz9IXl6eodd07txZPvjgA8N1GXXo0CF54IEHDNdRsWJFiYuLk/bt20v79u0NvSY3N1fWrVsnc+fOlTVr1hiubezYsTJ48GDD7b0pkP5W8/LypGfPni5dROvcubO0a9dO2rVrJxEREYZft2HDBvnmm29kyZIlhl/Tt29fef311w2396Xs7Gxp3bq1FBQUuPS66dOnS1xcnI+q8i07jDGKM3XqVPnoo4802yxdulSio6NNqqh4TuxrR48eLQsWLDDcvmnTptK5c2dp27atNG7c2PDrUlNT5f/+7/9k0aJFhqez1qlTR5YtW2b4HL7kxH7JGxwx3dTVqwcirs1d9rWsrCx59dVXDbUtUaKEDB48WJYuXSovvfSSSwFRRKRChQryzDPPyIoVK2TUqFGGrqDk5+fL6NGjmb7mopSUFMOfq8i1L4Mff/xRRowY4dKGthUrVpR+/fpJUlKSzJo1S6KionRfk5+fL8OHD/f6VLbRo0cbDohNmzaVpUuXyptvvinx8fGGA6KISIsWLWTKlCmyZcsWeeaZZwy9Zvny5fLll18aPocRly9flmeffdbwoKV3796ydOlSeeWVVwwPWkSubevQpUsX+fTTT2X16tXSrl07Q6+bPHmypKSkGD6PU02dOtVwQIyKipKEhAT54IMP5OGHH3YpIIqItG7dWt59911Zvny5NGjQwNBrEhIS5N///rdL5/GVhQsXujwQE3Hve9pfBPoYww6c2NeuWbPGcEC85ZZbZPLkyZKYmCjPPvusSwFRRCQ6OlomTJgg69atM3wHPC0tTd544w2XzuMrTuyXvMH2ITE7O9vtpXnnzJnj5Wrc88ILLxgarNesWVPdmfJ02lyJEiXk2WeflYSEBEN7I+7atcutKZNOdf78eXnuued0l0sXuRaWli9fbjjsaGnVqpX8+OOP0r17d922p06dkvfee8/jsKctuwAAIABJREFUc173xRdfGL478tJLL0liYqLHV6dDQ0Nl9OjR8tVXX8mtt96q2/6tt97y6kI2I0eONLTAVJUqVeSLL76QqVOnuhSGbyQyMlI+++wzw3eox48f79H57G7r1q3y1VdfGWr75JNPyqpVq7xyB7527dryww8/yIABAwy1//vf/y6XLl3y+Lyecvd7c926dS5NafMXdhhj2IHT+tqcnBx58cUXDbVt166dLF26VPr16+fxecuWLSvvvfee4ZkLH374oSUrp/+R0/olb7F9SPRkI3Ij+6n42ldffSWbNm3SbVevXj1JSEjw+vTAO+64Q+bMmSNVq1bVbfvmm2+6NI3QyYxuvN26dWuZPXu21K5d22vnLl26tLz99tsSExOj2/aTTz7xyr6FJ0+elP/93//VbXfzzTfLl19+6dYzJVpat24tn376qdx8882a7S5dumSoTiMWLVpkaHGK6tWrS0JCgrRt29Yr571u8ODBMm7cON12O3bsYLnvYuTm5srIkSN12wUFBcmkSZNceiTAqIkTJ8qTTz6p2+7UqVMyadIkr5/fFcnJyS5Nyf29oqIin20y70uBPsawAyf2tWPGjDF0QTMuLk4+/vhjQxf7XdG3b1/56KOPDM02Gz16tPz2229ePb8rnNgveYvtQ6LeH6TeFSArfzmOHTsmU6dO1W3XsGFDmT17ts+ebahRo4bMmjVLt11eXp5X7zzZ1aFDhwx9UbRv314+++wz3WDjjqCgIJkxY4Y0bNhQs11BQYH84x//8Ph8r7/+uu5Uj1KlSsmXX34pbdq08fh8N9KkSRN58803ddstWLBAdu3a5dG5rly5IlOmTNFtFxkZKQkJCS5PSTTq8ccflwcffFC33dSpU/3iLpS/mTRpkvzyyy+G2vXv399ndYwZM8bQ55iQkCAnTpzwWR169L4v9UJ0IF6sCOQxhh04sa9dtGiRrFixQrddfHy8TJ8+XUqWLOnR+YoTExNj6KLq4cOHZeHChT6pwQgn9kveYuuQuGPHDs2rB3fffbc8+uijEhoaWmybH374wbIlxmfMmKE7vz4sLEy++uorj6dN6KlVq5aMGjVKt93ixYv9du8ufzFx4kTd5zebNWsmn376qU9X1SpVqpShRUE2bNgge/fudfs827ZtMzTNdMaMGdKyZUu3z2NEt27dDE21ff/99z06z8cffyxZWVmabUqXLm34Lr0npkyZItWrV9dsk5OTwwbff3Ds2DFD/ybPP/+8V6Zx6Xn55ZelUqVKuu2s2MRb5NpzzFrPR4WEhMjDDz8s9913X7Ft0tPTDc2c8ReBPsawAyf2tdOmTdNt06pVK0MXRT3Vq1cvQ3dmXVlcx5uc2C95k61Dot5D4fHx8RIcHKy5clFubq5899133i5N18WLF2Xx4sW67f7617+atjraU089pbuCaV5ennz//fem1BOI1q5da6izMWvaWHR0tMTHx+u28+RvwMhV3q5duxqa/uoNI0aM0G3z008/ub134rlz5wytkvriiy9KtWrV3DqHq4YNG6bbJikpyYRKAoeRgVyVKlVcXtXSXeXLlzc0nXXu3LmWLCK2ePFizbATGxsroaGhuv1NIF21D+Qxhh04sa9dvXq17v6PQUFBLi2K56lXX31Vd8bTli1bLJnl4MR+yZtsGxLz8/M1w0pwcLD06NFDREQeeOABzWNZsbpRYmKiXLlyRbNNdHS0PPzwwyZVdO3fzEgHaNUVo0Dw9ddf67Z5/PHHdaeBetOgQYN02yxatMitgefBgwdlx44dmm1KlSolr7zyisvHdledOnUMBdKlS5e6dfzExETdGQD169eXgQMHunV8dzz44INSvnx5zTa7d+/mmeL/7+rVq4ZWnhw7dqxPpoMXJz4+XiIjIzXbZGVlubVnmqf0vid79uwpItfu5oeEhBTbbsmSJQFxZy3Qxxh24MS+1khYeeSRR0zdkqRGjRrSq1cv3XZWTK12Wr/kbbYNiUlJSZofaKdOndQUkJYtW2pOQ/j5558lNTXV6zVqMbKa3uTJk30217w4Xbt2lXLlymm22bp1q+FlqJ0kKytLVq9erdmmcuXKhhbK8KY77rhDd1uMM2fOuLXAgpEtJf7nf/7H6w/V67k+eNPi7h3xb775RvPnQUFBMmXKFAkKCnLr+O4IDg6W+++/X7cddxOvWb58ue6d5LvuusuS/bOMPPvo7mqb7tKbjlWxYkU1nSskJES6detWbFu96WH+ItDHGHbgtL42JydHd4GecuXKyQsvvODysT3Vt29f3TZ64x9vc2K/5G22DYl6Vw9+f2s5KChIevfurdnezCsgO3fu1F3KuVGjRtKiRQuTKvqPkJAQQ3sK/fzzzyZUE1jmzJmjuwqe3vMrvtKnTx/dNuvXr3fpmEamUZUpU8aSzdy7dOmi+++8efNml1dk27x5s+7fbps2beSOO+5w6bjeYGRa8YYNG0yoxP8ZuYv49NNPm1DJnxnZo2zPnj0mVPIf8+fP15xp0LNnz/+6oKl31yEQ7qwF8hjDDpzY186dO1d3DGHkTqYvNG/eXCpWrKjZ5sCBA27tVeguJ/ZL3mbLkJieni5bt24t9uflypWTjh07/td/e+ihhzSPOX/+fLeXuXaVkVWrunbtakIlN9a6dWvdNsnJySZUElh+/PFH3TZGpmz4gt4ARkRk3759Lh1z5cqVutMzOnXq5NPFeYoTEhKi+zdUWFgoBw4ccOm4Rj5jI1eZfaFFixa6z+WYHS78UV5enu4FkVKlSrm0Abc31a5dW3dxjN27d5v2fVVUVKQbqv/Yr7Vp00bzWfpdu3b59Z21QB9j2IET+9qVK1fqttG6G+Zr7dq10/x5QUGBad8xTuyXfMGWIVFv08wePXr8aWAaFRUlTZo0KfY1OTk58tNPP3mlPj1GApaVIfGPX343wmDzv509e1YOHz6s2aZJkya6gz9fCQ8Pl5o1a2q2cTUkGrlSasV0veuMXOxISUlx6Zh671lvEQtf01rBTeTa3V9v7IsZyIwErE6dOslNN91kUkV/prdNTF5enm5/4y3r1q3TXF0yOjpaGjVq9F//zcidNX/eaD7Qxxh24LS+trCwUHdsWLlyZa/vle0KI9tX7d6924RKnNkv+YL5l/B9rLCwUHcJ8OLu1vTq1UvzjzAxMVE6d+7sUX1G6O3R1rBhQ69uru6qSpUqyezZs+Xq1avFtilTpoyJFfm/NWvW6Lax8gtNRKRBgwaa03cyMjLk3Llzhrdb0fsSL1++vGV3Y0SuvV89rgTjs2fPypEjRzTbtGvXztK/DSPvOSUlRWrUqGFCNf7J3y/SiVxboVdvSlvlypVNqUVvClZxi7b06dNHPvnkk2Jft3DhQvn73/9uyUwDLXYYYwQ6J/a1KSkpulM1u3XrZurzl3/UpUsX3cX5wsPDTanFaf2Sr9juXa5evVrz6kFUVFSxV1ri4+Nl8uTJxYaflStXSnZ2tk+3nDh06JDuRqtWPIv4R77ez85ujNxVu/fee02opHj16tWTZcuWabZJSUkxdAcuIyNDd7nrli1bmr7w0u/VrVtXSpQooXnXaP/+/YaPZ2QqkNWfcf369XXb7Nu3z/IQZKWdO3fqtrnnnntMqKR44eHhpg22tFy4cEFzFeCgoKBiA1PdunXltttuK/ZCzPVFOqycPncjgT7GsAMn9rVG+iWrx2WhoaGW940izuyXfMV2IVHvCp/WUtTX72wU1wEVFhbK/PnzZciQIR7VqMVIR2Ck84F/MTLF4vbbbzehkuINGDBA94tVb5/M67Zv367bxsxtPm7kpptukjlz5mhuNaO1JPYfGfmMrX7Pd955p+6VXrPuQPkrI1O6jN5Nt7uFCxdq3t1o1aqV5rNZvXr10rxbn5iY6HeDsUAfY9iBE/tavRlmIowNr3Niv+QrtgqJFy5c0F30RW9hkPj4eM2rVL7uwI1MdapXr57Pzg/f0NsTyR8+0ypVqnhtKwoje0D5wxfanXfe6bVjGXnPVl8IKFWqlF9c6fVX2dnZcvLkSc02/vC36i/0VuTUmxLbq1cvmTp1arF31tauXSuZmZma20eYyQ5jDDtwYl+rNza86aabLH0MyZ84rV/yJVstXJOYmKh59eDOO+/Unf8dGxuruTR+Wlqaobsk7jLyIHPjxo19dn543/HjxzWf3xQx9vxCINF7XkTE+iu93qb3nqtUqWLJ0uQwLi0tTbcNIfGaffv2aS7sFBISovucdcWKFTWnrxcWFvrVsvN2GGPYgRP7Wr2+6frjE07nxH7Jl2z1GzV79mzNnxvZu8bIili+3M9IbwPnKlWqSOnSpX12fnifkcAUERFhQiXm0du/SkSkVq1avi/EJFeuXJGMjAzNNlatXAvj9PpfEULidXrLy/9+M3ktet/LRvasNIsdxhiBzol97aVLlzT3+xO5FhLhzH7Jl2wTEpOTkzWvtAQHB0v37t0NHUtvCdzvv/9e8vPzXarPqPPnz2v+3B8WK4BrtBY5uO6WW24xoRLz6L3nkJAQW131zMzM1G1Trlw5EyqBJ/T6XxFxxBQjPQUFBbJw4ULNNkYCk8i1FRm1Bm3p6emyZcsWl+rzBbuMMQKdE/taIxev9PZldAIn9ku+ZptRmt6Vt5iYGMPTD1q2bKk5EMjNzZXvvvvOpfqM0hukcBcx8OitVitivy81vfdst/d78eJF3TZ2uxBgRxcuXNBtw/Y+IkuWLJFff/212J+XK1fO8PY2ISEhEhsbq9kmISHBpfp8wS5jjEDnxL7WyMUrxobO7Jd8zRYhMT8/X5KSkjTb9OzZ06VjPvjgg5o/98V85KKiIs1fcBExdJsc/sWJX2p6v8dODIl2e892ZOSKPX2w/vdffHy8S9vb6C328uOPP0pubq7h43mbXcYYduDEvtZIv8TFK+f1S2awRUg0cvWgU6dOLh2zb9++mj/ftm2bpKenu3RMPUY6Aq4WBR6n3UnMy8vT3HtQxH6h2IkDFzviir2+zMxMWb9+vWYbvcHVH7Vu3Vrzzlp+fr4sWrTIpWN6k13GGHbgxL6WfkmfE/slM9giJOpdPbj//vslONi13T6ioqKkadOmmm30HmJ3FVex7eny5cu6bey075qRUGy3leeMfMZ2G7jYkZHBmNOv2CckJGguomHku/OPgoKCdO/EWbmYi13GGHbgxL7WSL/k9LGhE/slMwR8SMzMzJSNGzdqtnH16sF1RlY30rtj4gojV8huvvlmr50P5tDb/kLk2h5HduG09yti7D3zt+v/jFzgcPrnqDco6tOnj1vH1Zt+uXPnTklNTXXr2J6w0xjDDpzY1zI21Oe0fsksAR8S58yZo3n1oGrVqtKiRQu3jq03fzknJ0dWrVrl1rFvRG+JYwCA79AHa9u0aZPuFEi9QVVx6tatq7sB+ty5c906tifsNMZAYKJf0ubEfsksAR0Si4qKdD8cd68eiFybEtehQwfNNjxcDgBwAr3V/Fq2bOnRUvx6d+QWLFhg6p01xhiA/3Nav2Qm1ybR+5l///vfuvuxuXv14Lr4+Hj56aefiv35ypUrJTs7WypUqODRecyWkpLi8mpsrqhXr54sXrzYZ8cHgED27LPPyooVK3x2/BkzZsj999/vtePl5ubKkiVLNNsY3YNM6/VTpkwpdkphTk6OLFu2TLp27erReYxijAGn+fzzz2Xy5Mk+O/6AAQNk4sSJXjueE/slMwX0nUS9qwdNmzaVGjVqeHSOLl26aD4QXFBQIN9++61H5wAAwJ8tWLBAc4P34OBgjy88VqxYUdq0aaPZxszvW8YYgH9zYr9kpoANiRcuXJClS5dqtnH3YfLfCw4Olu7du2u2mTdvnsfnAQD4P6c+H6Q37bFTp05eWWFR76r/6tWrJTs72+Pz6GGMgUBCv3RjduuXzBawIXHRokVSUFBQ7M9LlizptemUDzzwgObP09LSZOfOnR6fx8iKj0ZWuYJ/MbJ/kZEV2wKFkQ7ZbvP3nfYZ25WRbQyMrIBqN6mpqbJr1y7NNt76vu3atatmH1JYWGhKaLLjGMMOnNjX0i/dmBP7JbMFbEjUW+62ffv2XtuLrWXLlpobaop450qfkf23tDb0hX8ysnG8ncJ/2bJlpUQJ7a7Fbr/HRvoaO33GdmXkAseFCxdMqMS/zJkzR/Pn5cqVk5iYGK+cKyQkRPfZHr16vMGOYww7cGJfy9jwxpzYL5ktIEPivn37ZO/evZptPH1Q9Y/0VjBLSkrSnBdthJEw4cSOINAZ2djXbp+r3u+y3b7EnXYhwK7og/+soKBAFi5cqNmmR48eLm8mr0VvGmd6erps3brVa+f7I7uOMezAiX0t/dKfObFfskJAhkS9h8lDQ0MlNjbWq+fU68Bzc3Pl+++/9+gcTrxC5gRGQqLdPle992y398vfrj2ULVtWt43T7iSuWLFCcnJyNNt449m837v33nt176zp3enzhF3HGHbgxL6WkPhnTuyXrBBwW2AUFBTIggULNNvExcV59eqBiEhUVJQ0bdpUc/7z/PnzPVoOu0SJEhISEqJ5tdBbHcHtt98uhw8fdvv1MTExcvz4ca/UYndGvtTs9jxB+fLl5cSJE8X+3G5f4mFhYbpt7Pae7chISPRWHzxz5ky3X7tgwQIZPXq0V+rQo7dqX1RUlDRv3tyr5wwKCpL4+Hj56KOPim3z/fffy4QJEww9o+YKO48x7MCJfa2Z/dLgwYNl8ODBbr02IyND7rvvPq/Uocdp/ZJVAi4kLlu2TPePoWbNmrJp0yavn/u2227T7MC3bt0qx44dk5o1a7p9jvDwcDl69GixPz916pQUFBR4/QsKvmMkJP7yyy8mVGIevfeck5Mjv/32m6HFmgJBaGiolChRQnNBnoyMDBMrgjvCw8N126Snp5tQiX84c+aMrFy5UrNNkyZNfPJ9GxERofnz/Px8SUpKkoceesir57X7GCPQObGvNdIvaV2UtRsn9ktWCbikYeRW7rRp00yo5MYSEhJk1KhRbr++Xr16miGxoKBA9uzZI82aNXP7HDCXkemmhw4dMqES8xiZHpOSkiJNmzY1oRpzlC9fXnP6y8GDB02sBu6oX7++bpvk5GQTKvEPRr5vf/jhB/nhhx9MqObP5s+f7/XBmN3HGHbgtL62atWqEhoaKpcvXy62ze7du6WwsFB30Tg7cGK/ZJWA+m3KzMyUdevWWV2Gpm+//daj5f3r1q2r28ZJgxQ7qFGjhm7HfeDAAZOqMUetWrV029jtPdeuXVvz57m5uUzR9nPR0dFSsmRJzTY7duwwqRrr+ftqfT///LOkpqZ67XhOGGPYgRP72ttuu03z53l5eba72Fwcp/VLVgqokDh//ny/3zA0KytLVq9e7fbrCYn2U6pUKWncuLFmm4yMDMnNzTWpIt+78847ddvY7Wqvkfe8f/9+EyqBu26++WaJiorSbPPrr786YmrXtm3bAmJqrd4iM65wwhjDDpzY10ZHR+u2ccLY0In9kpUCKiQGyj+63gO1Wlq0aKHbZvfu3W4fH9Yw8gD1nj17TKikeO+9957UrVtX83/Lli0zdKy7775bt43VIbGwsFAaN26s+X579Ohh+HhGPmOr3/O2bdt0P+NJkyZZWqPVjHyOTtjYPFBW6UtMTPTanTUnjDHswIl9rZH37ISQ6MR+yUoBExI3b94cEFcPRK4tzZudne3WayMiIqROnTqabVJTUzWfW4T/MXLlc+PGjSZUUjytBROu07sjel3ZsmV174r//PPPkpeXZ+h4vpCSkqJ7/kaNGhk+XsuWLXXbBMJnfPvtt5tQif8ysjrfTz/9ZEIl1snNzbXseR5X5eTkeOXzcMoYww6c2Nd27NhRt82KFStsEUyK48R+yWoBExID5QqfiLFNPrW0bdtWt82sWbPcPj7Md9ddd+m2WbRokQmVFE/vWatbbrlFqlevbvh4elc+8/LyZOnSpYaP523e/hKvUKGC7qqDW7ZskdOnTxs+prcZec+uBGM7at++vQQFBWm2Wbx4se4eXYHs+++/D6jp7964u+CkMUagc2JfW6lSJWnYsKFmm9OnT9simBTHif2S1QIiJObm5srixYutLsMlnjxYa+RKdkJCgly5csXtc8Bc1apV0106+dixY5ZNF0lPT9cd9DZp0sSlYxq5e2rl5tBGpgy6eldN7z0XFRVZOrjTG7gEBwdLvXr1TKrGP5UvX173d/3q1asyb948kyoyX2JiotUluGTVqlUe3Vlz2hjDDpzY1xoZG9r598Jp/ZI/CIgtMBYtWqS5wbyIyPTp0yUuLs6kikRee+01+eyzz4r9eVpamuzatcutJf7btWsnYWFhcu7cuWLbXLx4Ub777jvp06ePy8eHNWJjYzV/Z0REkpKSXA5j3mBkIQRXA1Pnzp1l/Pjxmhcz1q5dK+fOnTO0QbI3FRYWypo1a3TbGZ1ee13Xrl11N+JOSkqSp59+2qXjekNqaqqcPHlSs02jRo0csYS6nu7du+sO8mbNmiVDhgzRvesYaNLT02Xbtm2abQYMGCATJ040qaJr03ufeeaZYn9eWFgo8+fPlyFDhrh1fKeNMezAiX3tAw88IB9//LFmm7Vr18rJkyd1L0oHGif2S/4gIEYDerdsQ0NDJTY21qRqrunXr59uG3enr5QsWVIefvhh3Xbvvvuupc90wTWDBg3S/VJISEjQvDjgK3pftiLXLl64IiwsTHr27KnZ5urVq/L555+7dFxvWLt2re4VvpYtW0qpUqVcOm5MTIzUqFFDs01KSoolz8sYuQpr5Eq1E/Tt21dKly6t2eaXX36RuXPnmlSReWbPnq3b5oEHHjChkv/o0KGDVKhQQbONJ1O7nDbGsAMn9rX169fXfXSlqKjI0n08fcWJ/ZI/8PuQmJqaqjstrEePHhIcbO5N0ejoaN07K0auThbn0Ucf1Q0U6enp8q9//cut48N81atXl7/85S+abS5evCjvvPOOSRVdc+LECd27JlWqVJF77rnH5WM/+eSTum0++eQTOXPmjMvH9oSR5z/d+cIJCgqSRx99VLfdP//5T5eP7QmjU68efPBBE6rxf2XLlpX4+Hjddq+99pqlzz15W2Fhoe402sjISGnWrJlJFV1TsmRJ3c8jLS1Ntm/f7vKxnTrGCHRO7WsHDBig2yYpKUnWr1/v1vH9kRP7JX/h9yHRyJVas68eGD1vbm6u/Pjjj24du0qVKtKtWzfddp988omkpKS4dQ6Y7/HHH9dtM2vWLFNX2Xvvvfd02/Tp08etaXX16tXT3Q4jPz9f3njjDZeP7a6TJ0/qPn8UEhLi0vYXv9e/f3/du1AHDx409fmKBQsWSFZWlmabFi1a6O4R6CSDBg3SbXP58mUZN26c74sxyapVq3SfTe7bt69J1fy3/v3767Zx56q9U8cYduDEvrZnz54SHh6u2+6ll16Sy5cvu3UOf+PEfslf+HVILCws1J0GFxkZaWhvQV/o3bu3lCxZUrONJ78co0ePNtTub3/7myVTFOG6e+65R/dh9YKCAhk/frwp9ezbt8/Q76gnd5gee+wx3TaJiYny888/u30OV0yaNEkKCgo028TGxuoOPopTunRpQ19Yb731likPtefm5hqafmTVQNhf1a1b19AAYMWKFfL111+bUJHv6Q2mg4KCLLvbHB0dLbfddptmG1dXP3T6GCPQObWvNTI2PHXqlLz44osencdfOK1f8id+HRKXL1+ue/Wgd+/eJlXzZ+XLl5cOHTpotvFk76XIyEh59tlnddulpqbKwIED5cKFC26dB+YycudhzZo1MnbsWJ/X8o9//EO3zf3336+73LiW2NhYQ1uAPP300z7f/3PLli2yfPlyzTYlS5aUYcOGeXSe5557TncxnszMTBk8eLDPnyueOXOm7pXt8PBwQuINjBo1SsqWLavbbuLEiQG/wXl2drasXLlSs83dd98t1apVM6miPzNyZ82VFZOdPsawAyf2tT179jQ0tXLJkiUycuRIKSoq8uh8VnJiv+RP/DokGpkiYPXAxsj5PVkqfdiwYboPxoqI7N+/Xx577DFTphe89957jv5S8lTr1q1l4MCBuu3mzp0rH374oc/qmDBhgu6ziKVLlzYUJLUEBQXJm2++qXtn7vz58/L444/77Bmv48ePy4gRI3TbPfLIIxIdHe3RuSpVqiSTJ0/Wbbd37155/vnn5erVqx6drzgrV66UmTNn6rYbO3as3HzzzT6pIZCFhYXJ888/r9uuqKhIXnrpJUlKSvJ5Tenp6fLBBx94/bgLFizQvcPeq1cvr5/XFfHx8bp31lyZWsgYI/A5ta81uornokWLTLngnJeX55MZUE7sl/yJ34bE7Oxs3WX5/eEZmk6dOkm5cuU028yfP9/tKzmlS5eWt956y9BSyXv27JG4uDjdTdHddeXKFRk2bJi8/fbbUlhY6JNzOMWYMWMM3Z174403ZMKECV5fnGDcuHGGpsgNHTpUqlSp4vH5IiMjDYXNkydPSnx8vGzdutXjc/5ecnKy9O3bV3eBnAoVKsioUaO8cs7Y2Fjd1V1Frm0/8uijj8qpU6e8ct7rEhISZMiQIbqDonvvvVe6du3q1XPbyeDBg6Vly5a67QoLC2XkyJHyz3/+02d3LLZu3So9e/aUtLQ0rx9b79m8kJAQU7eAuJGKFStK+/btNdts27bN0EVMxhj24cS+tlGjRjJ06FBDbefNmycDBw6UjIwMr5z7jzIyMuSBBx7QvePnDqf1S/7Gb0NiQkKCbhAxsvqcrwUHB+sucJGVlWVoT7bitG3bVv72t78ZanvixAnp27evvPLKK16bA52fny+ff/65dOzYUZYuXWroNVWrVvXKue0qJCTEcPj/+uuvJS4uTvbv3+/xeQ8fPixxcXGGlpMODw/36v4+/fr10+1IRa79vQwYMEDefPNNj6/6Xr16Vd555x3p27evnD17Vrf9yJEjpUzVbg2FAAAMWElEQVSZMh6d8/deffVVQyF7y5Yt0rVrV1myZInH5zx//rwMGzZMxowZo9u2ZMmShq7CO1nJkiXlgw8+MDSdqbCwUL788kvp0qWLbNiwwWs17N+/X4YPHy4PP/yw4ccKjCxucd2uXbt0g2fnzp0lNDTU8DF9xchdg2+++Ua3DWMMe3FiXzty5Ehp27atobabNm2SLl26eHXLqdOnT8vkyZOlS5cucujQIUOvcWVaqBP7JX/jtyFR79ZscHCwX3TgIsYW9fD0VvPQoUOlU6dOhtt/88030rp1a3nllVdk9+7dbp0zLS1NPv74Y7nvvvtk8uTJkpmZaeh1lStXlqlTp7p1Tidp2rSpvPDCC4baHj16VLp37y5jx47V3VD2RpYvXy5Dhw6Vrl27yoEDB3Tbh4aGyocffuj1Zd9ff/11qV69um67wsJC+eCDD6R79+7y1Vdfufy87alTp2TGjBnSsWNHmT59uqGwGR8fb2hvMleULVtW3nrrLUNtL168KM8//7wMGjTIrWmLu3btknHjxsl9991n+GLOpEmTdPcaw7Vpp0ZWAb7ul19+kccee0z69esn8+bNc+sxgIsXL8r69evliSeekO7du+uuyPt7I0aMkObNmxtub2S/PaundF3XpUsX3TtrRgIgYwx7cWpf+69//UsiIyMNtc3NzZXJkydLx44d5d1333X7zmJycrK8/PLLcu+998rnn39u+IZE69atDd/9FHFmv+Rvgor8cI7C9u3bdQdr3bp1M30/OS2xsbGSmppa7M+Dg4Nly5Ytur9EWvLy8mTo0KGybt06l19bv3596dq1q0RFRUlkZKRUr15dIiIi5OTJk5KZmSkZGRmSmZkpx44dk5SUFNm/f79bdyJDQkJkzpw5cscdd7j8Wm/Iz8+XRo0aabaJi4uT6dOnm1SRvg8//NDlLSAiIyOle/fuUrt2balRo4ZERUXJrbfeKmlpaXLixAlJTU2Vw4cPy+HDhyUtLc3lz3LWrFnSqlUrl15j1KlTp2TgwIEuL1Jz//33S/PmzaVGjRoSGRkpNWvWlHPnzsmxY8ckLS1Njh49KocOHZJDhw65/OXXrl07+eyzz1x6jSs2bNggzzzzjEufQ7ly5aRHjx7SsGFDiYqKkqioKKlZs6YcOXJEjh8/LqmpqXLkyBE5fPiwHDp0yOUVjkeNGmVoYSxfCcS/1VWrVsnw4cNdnk5aqlQpuf/++6Vx48YSFRUl4eHhUrNmTbly5YpkZmbKqVOnJCMjQ06dOiUHDhyQlJQUt6cmxcbGuhRo8/PzpUWLFpq/mxUqVJCNGzfqPndjlvHjx8usWbM023z44YfF7kvLGMO4qVOnykcffaTZZunSpR4/x+0tTuxrjx8/Lo899phbfUbbtm2lbdu2akwYEREhlSpVkiNHjkhWVpb88ssvkpmZKYcOHZL9+/cbush8IzVr1pRFixYZWghMxJn9kj8yd3dYg4ws6ewvVw+u6927t+ZAv6CgQBITE+X/tXd3IU2GbRzA/zl0imzzYx+JEaFJLNRZZvmFYVgUKI1CywRhQaWEhSgFnlVEJ4pRlH1JdaCmTiuXTmfiJ1TQQWgf4IEVCWk50YViJ/Ue9DreN8pnzn08uf8PPHJ77meR1+7rvp/7ugwGg9NjBAYG4s6dOzh16pTDq1eLRkdHMTo66vTYjggODsatW7e8liD+q06cOIGgoCCcP3/e4feMj487dEh+ufz8/FBTU+O2BBH49bhJQ0MDCgoKlnW2qqOjwy09weLj491SCOR/paam4t69ezAYDA7vKtlsNsEvHGfl5+d7NUH8V2VmZqKurg6FhYWYm5tz+H0LCwtobW11ewXUrKwsVFdXL+s9HR0dghNqvV4vmokY8Ov7Vuhvw2g0/nUyxjnG6uWLsXb9+vUwGo0oKChYciHhT4aGhjA0NOSmO/slKioK9+/fdzhBBHwzLomR6B43/f79u2Cp2LCwMMGy0J7mSLNxR86BCZFIJLh27RrOnj274mu5UkREBJqamtyaXKxmhYWFXj8bFhwcjCtXrngkgKlUKjQ1NQn2F3K3zMxM3L17F1Kp1O1jJSYmoq6uzuUr/ctVXFyMCxcuePUe/mU6nQ6PHz8W3WKYwWDAjRs3ll050ZHHFPPy8py9LbfQ6XSCj9j19PT8sTce5xirny/GWqVSidbWVtEtbmzfvh1Go3FZZ6QB34tLYiW6JLGtrU1w9SAnJ0dUqwfAr+pGQgeIx8bGnD4f+Ltjx47BZDIhKirKJddzlr+/P4qKivD06VNs2rTJq/fyrzt06BBaWlqwceNGj4+dlJSErq4uj1a5DAkJgdFoRFFRkcvPPgpZ3Lm9ffs2FAqFx8aNi4uD2WzGnj17PDbmosjISDQ2NqKsrMzjY682GzZsgNFoRHFxsUPFp9wpJiYGDx8+dKrM/fj4OF68eLHka7RarVdikpDDhw8v+fsfP378ceeWcwzf4IuxNjg4GJWVlbh8+TJkMplHx/6dUqnEpUuXUF9fv+xk3RfjkliJLkl05B/P232L/saRFRxHDuI6SqvVwmQyoaSkRLAHnTvk5OSgs7MT5eXlHtmJ8QU6nQ7t7e2oqKhwaZXNv/H398eZM2dQX1/vlWa0UqkU5eXlaG9vd6jNgCts3rwZ7e3tOHLkiEfG+51Go8H169dRW1vrcMGBldq/fz/MZjMSExM9Mp4vkEgkKCsrQ2NjI3Q6ncfHV6lUuHjxIsxms9O7ms3NzYKtE8S2M7FIr9cL7qz9qX8g5xi+w1djbXZ2Njo6OrxSeEkqlaKoqAgWiwW5ublOXcMX45JYiSpJHB8fF+yPFh0djdjYWA/d0fLs3btXsBSvyWRyac87qVSK06dPo7e3FwUFBS677lJ27dqFtrY2VFdXO9Trj5ZHIpHg6NGj6O7uxr59+9wyhkajQUlJCfr7+3H8+HHBoOZu0dHRaGhoQGVlJZRKpcuv7+fnh8zMTNy8eROPHj0SRUXPnTt3wmKx4OTJk/D393f59YOCgpCXl4cnT56gqqpKFGXCV6MtW7agpaUFNTU1HinesW7dOlRUVODZs2crqsb78+dPwYRCIpGIdjK2du1apKWlLfmasbGx/+sbzDmGb/LFWBsREYGqqiqYTCaHWk+tlEwmQ35+Pnp7e1FeXu70o76+GJfETFSFax48eCD4mgMHDnjgTpyz2NRzqf/g3759Q2dnp8tXeJRKJc6dO4fS0lL09/djYGAAg4ODK372ec2aNdBqtUhNTUV6ejqSkpK4a+gharUaV69excePH2E2m2GxWDA8POz09aKjo6HT6ZCRkYHs7GwX3qnr6PV66PV6WCwW9PT0oLu7e9ntLxbJZDLEx8dj27ZtyM3N9cpOqZCAgACUlpbCYDCgq6sLFotlRf3ONBoNEhISkJycjIMHD4pisuIrdu/ejaysLIyMjKCvrw8DAwMYHh5ecclzhUKBlJQUpKSkID093WULc4ODg/jy5cuSr0lPT0d4eLhLxnMHvV4vWHSjubnZ3g6Ecwzf5auxVqvVora2Fp8+fUJfXx/6+/vx/PnzZVdo/l1AQAASExORmpqKtLQ0xMbGuuTRe1+MS2ImyhYY5DqLZxTevHmDt2/fYmZmBrOzs7DZbJibm4NCoYBcLodCoUBISAhkMhnkcjlCQ0MRExODjIwMhIaGevtj0H9NTk7CbDbjw4cPmJ6ehtVqxdTUFKampjA7O4uIiAio1WoolUqoVCpERkYiLi4OW7duFe2XmJCBgQG8fPkSk5OTsFqtmJmZwcTEBCYmJiCXy6FSqaDRaKBUKqHRaBAVFYWEhATExMR4+9adMj8/j87OTrx79w5WqxXT09P4+vUrpqamYLVaER4eDrVaDZVKZf/sWq0WSUlJbtmFJefNz89jeHgYr1+/xqtXr/D582d7/J2enkZgYOAf469CoYBarcaOHTuQkJDg7Y9BtCr5cqwdGRmx/7x//x4zMzOw2Wyw2WxYWFhAWFiYPS7J5XL7T1hYGHQ6HZKTkxEYGOjtj0FuxiSRiIiIiIiI7ER1JpGIiIiIiIi8i0kiERERERER2TFJJCIiIiIiIjsmiURERERERGTHJJGIiIiIiIjsmCQSERERERGRHZNEIiIiIiIismOSSERERERERHZMEomIiIiIiMiOSSIRERERERHZMUkkIiIiIiIiOyaJREREREREZMckkYiIiIiIiOyYJBIREREREZHdfwC4u86ZZmOR5QAAAABJRU5ErkJggg==;" vertex="1" parent="1">
                    <mxGeometry x="118.32" y="540" width="523.37" height="288" as="geometry"/>
                </mxCell>
                <mxCell id="42" value="" style="endArrow=none;dashed=1;html=1;strokeWidth=2;strokeColor=#FF0000;rounded=0;curved=0;exitX=0.102;exitY=-0.058;exitDx=0;exitDy=0;exitPerimeter=0;" edge="1" parent="1">
                    <mxGeometry width="50" height="50" relative="1" as="geometry">
                        <mxPoint x="151.952" y="772.9839999999999" as="sourcePoint"/>
                        <mxPoint x="154" y="660" as="targetPoint"/>
                    </mxGeometry>
                </mxCell>
                <mxCell id="43" value="&lt;h1&gt;&lt;b&gt;&lt;font style=&quot;font-size: 18px;&quot; face=&quot;Comic Sans MS&quot;&gt;A&lt;/font&gt;&lt;/b&gt;&lt;/h1&gt;" style="text;html=1;align=center;verticalAlign=middle;resizable=0;points=[];autosize=1;strokeColor=none;fillColor=none;" vertex="1" parent="1">
                    <mxGeometry x="134" y="571" width="40" height="70" as="geometry"/>
                </mxCell>
                <mxCell id="44" value="" style="endArrow=none;dashed=1;html=1;strokeWidth=2;strokeColor=#00CC00;" edge="1" parent="1">
                    <mxGeometry width="50" height="50" relative="1" as="geometry">
                        <mxPoint x="160" y="660" as="sourcePoint"/>
                        <mxPoint x="230" y="660" as="targetPoint"/>
                    </mxGeometry>
                </mxCell>
                <mxCell id="45" value="" style="endArrow=none;dashed=1;html=1;strokeWidth=2;strokeColor=#FF0000;rounded=0;curved=0;exitX=0.136;exitY=-0.038;exitDx=0;exitDy=0;exitPerimeter=0;" edge="1" parent="1">
                    <mxGeometry width="50" height="50" relative="1" as="geometry">
                        <mxPoint x="157.93599999999992" y="774.0239999999999" as="sourcePoint"/>
                        <mxPoint x="230" y="660" as="targetPoint"/>
                        <Array as="points"/>
                    </mxGeometry>
                </mxCell>
                <mxCell id="46" value="&lt;h1&gt;&lt;b&gt;&lt;font style=&quot;font-size: 18px;&quot; face=&quot;Comic Sans MS&quot;&gt;E&lt;/font&gt;&lt;/b&gt;&lt;/h1&gt;" style="text;html=1;align=center;verticalAlign=middle;resizable=0;points=[];autosize=1;strokeColor=none;fillColor=none;" vertex="1" parent="1">
                    <mxGeometry x="175" y="605" width="30" height="70" as="geometry"/>
                </mxCell>
                <mxCell id="49" value="" style="endArrow=classic;html=1;strokeWidth=2;" edge="1" parent="1">
                    <mxGeometry width="50" height="50" relative="1" as="geometry">
                        <mxPoint x="153.5" y="625" as="sourcePoint"/>
                        <mxPoint x="153.5" y="655" as="targetPoint"/>
                    </mxGeometry>
                </mxCell>
                <mxCell id="52" value="" style="endArrow=none;dashed=1;html=1;strokeWidth=2;strokeColor=#FF0000;rounded=0;curved=0;" edge="1" parent="1">
                    <mxGeometry width="50" height="50" relative="1" as="geometry">
                        <mxPoint x="200" y="770" as="sourcePoint"/>
                        <mxPoint x="260" y="660" as="targetPoint"/>
                        <Array as="points"/>
                    </mxGeometry>
                </mxCell>
                <mxCell id="53" value="" style="endArrow=none;dashed=1;html=1;strokeWidth=2;strokeColor=#FF0000;rounded=0;curved=0;" edge="1" parent="1">
                    <mxGeometry width="50" height="50" relative="1" as="geometry">
                        <mxPoint x="193" y="773" as="sourcePoint"/>
                        <mxPoint x="230" y="660" as="targetPoint"/>
                        <Array as="points"/>
                    </mxGeometry>
                </mxCell>
                <mxCell id="54" value="" style="endArrow=none;dashed=1;html=1;strokeWidth=2;strokeColor=#00CC00;" edge="1" parent="1">
                    <mxGeometry width="50" height="50" relative="1" as="geometry">
                        <mxPoint x="230" y="660" as="sourcePoint"/>
                        <mxPoint x="260" y="660" as="targetPoint"/>
                    </mxGeometry>
                </mxCell>
                <mxCell id="55" value="&lt;h1&gt;&lt;b&gt;&lt;font style=&quot;font-size: 18px;&quot; face=&quot;Comic Sans MS&quot;&gt;E&lt;/font&gt;&lt;/b&gt;&lt;/h1&gt;" style="text;html=1;align=center;verticalAlign=middle;resizable=0;points=[];autosize=1;strokeColor=none;fillColor=none;" vertex="1" parent="1">
                    <mxGeometry x="230" y="607" width="30" height="70" as="geometry"/>
                </mxCell>
                <mxCell id="56" value="&lt;h1&gt;&lt;b&gt;&lt;font style=&quot;font-size: 18px;&quot; face=&quot;Comic Sans MS&quot;&gt;A&lt;/font&gt;&lt;/b&gt;&lt;/h1&gt;" style="text;html=1;align=center;verticalAlign=middle;resizable=0;points=[];autosize=1;strokeColor=none;fillColor=none;" vertex="1" parent="1">
                    <mxGeometry x="207" y="582" width="40" height="70" as="geometry"/>
                </mxCell>
                <mxCell id="57" value="" style="endArrow=classic;html=1;strokeWidth=2;" edge="1" parent="1">
                    <mxGeometry width="50" height="50" relative="1" as="geometry">
                        <mxPoint x="228.5" y="628" as="sourcePoint"/>
                        <mxPoint x="228.5" y="658" as="targetPoint"/>
                    </mxGeometry>
                </mxCell>
                <mxCell id="69" value="" style="shape=stencil(lVnZchs5DPwavaJ44eBzkv2PVMVZq9axU443x98vVCpSJmamvX6T5W4NSAKNBudUP/y4//z97lTSj5fnp3/ufp2/vNyf6sdTKefH+7vn84t/OtVPp/rh69Pz3d/PT/8+frn+/f3zBXn59O3p5+UXfl95iVK6kEr6c/0ip/nVX1fCw/kREXonNojvEV8V4YtGfGKEl7biDcaTx9MnXknqMb5QsRUvVOUYX6mF328k5RjfSEP8hQzEz9Tris+U2zFeqeQFb50aOF+jup6X+f6A9c7Tn3iPEKw3Z0rrgq2SgoByIV4zzjK1DgiVbD0C9SWDI85MZQ1JlRJYcxZqZSU0MnAIWUcAk1Bg1mVP4vUJ0qmjJ3TS9ZxFR+Xt53UiW7dVGkwMr5y+ZoZkYlCZXgp5TQ02eNJeC6H2WShlQGBqshIqJkhUC8Zq5+UTyrMpZbRo2xAaVfSETsIrIZMCgawpKkztI3/3CXkEMAkykmWfUCivyVd9DegJLlnrGvyZAnap1qgavg0ZheSpsYbkR6kopBZD8uxiUHGVR/ZPQiEFQuyEHp4wpW2fIMRrAXnRotSort2rariOFLStSn2tB5e2DESg2ljiJHjRol3ybA1+IY8g99tbilLZYWZ48gctng3pCN+D2I+GvY933Q06SRXFX8eOT8UgBofseFsPuY1T38e32Bnq0OV9PFMK1U8ZtCrHB5kv0H41GVUyD5g6ikepcsA3ZHcsNoU0yugI33PAK9rPHhU+wUbLG7855fUIv4mngvXy7JE3PDovLqNgb3jUoBxv9T34SjXu/xv4ze/D+F2o03v2x8tD3rP/02j9v3xgHn3llp+o0Tg+7A/OZ8ezBjyqF8eH+HE9XhxQaHwkaL0S9x87IscHv1/xeUlcrw88aFzxNh2sAdQ3dte65luD3t3xIX4eTuEIr2u+Yf3nzTykY0H7+B7j79A6OV5C/iQ4P0mKPuU2IO0TNgNXbpTAkV1sffApnuQgh6RsfIqMKfWIoGHRNtrIPmEm5SvrhKZqJwQn9IY58+FHNvYPNQ7hkTevDGZBu8TRqRSGrU8kWhXPPWRhZY4mk2BjG44IGsQiwQlNbCTzJBRqaFs9gFVO3xglZJ7rq2EFGUz1Br6e9MUFA0V1QnBobmoV5JLmaIncdDawrT7bB0/krhClt24mZbdtyOg7IbgQ920dtAVt0Ra5sVK0rbyZxXEjd0IIya0PmtB0O4tjK6sar+IY9wa10fomgcdUeEQIszjjaUJ7dAveLwyswVJsz67ngq7jUrzvc/FEBWQ5NlzBcm9l3O9NAo+i3SfU2LJcR9CVpbVNz+1wtLbNaK0Zprdp7HE657B9go1L00lg6COtbwhYjHsa19aTYND5OMHCTWqCt5A9x/7gZ4+8Xi9RvZ2A+kOfBTkJZVT5ESHIvScLqofeohh7shh6Asd7Tk8WVEBdRoOaBIE3Ct276JreNj3pEcFyJMArcxtXCJNgVFBIPYqxE+Ale9q8pvEE5iUm/3B7KfT1/PBwfaf0+v/xJZJ/dX0BVT/9Bw==);fillColor=none;strokeColor=#808080;strokeWidth=2;" vertex="1" parent="1">
                    <mxGeometry x="841" y="471" width="264" height="143" as="geometry"/>
                </mxCell>
                <mxCell id="70" value="" style="shape=stencil(lVnZchs5DPwavaJ44eBzkv2PVMVZq9axU443x98vVCpSJmamvX6T5W4NSAKNBudUP/y4//z97lTSj5fnp3/ufp2/vNyf6sdTKefH+7vn84t/OtVPp/rh69Pz3d/PT/8+frn+/f3zBXn59O3p5+UXfl95iVK6kEr6c/0ip/nVX1fCw/kREXonNojvEV8V4YtGfGKEl7biDcaTx9MnXknqMb5QsRUvVOUYX6mF328k5RjfSEP8hQzEz9Tris+U2zFeqeQFb50aOF+jup6X+f6A9c7Tn3iPEKw3Z0rrgq2SgoByIV4zzjK1DgiVbD0C9SWDI85MZQ1JlRJYcxZqZSU0MnAIWUcAk1Bg1mVP4vUJ0qmjJ3TS9ZxFR+Xt53UiW7dVGkwMr5y+ZoZkYlCZXgp5TQ02eNJeC6H2WShlQGBqshIqJkhUC8Zq5+UTyrMpZbRo2xAaVfSETsIrIZMCgawpKkztI3/3CXkEMAkykmWfUCivyVd9DegJLlnrGvyZAnap1qgavg0ZheSpsYbkR6kopBZD8uxiUHGVR/ZPQiEFQuyEHp4wpW2fIMRrAXnRotSort2rariOFLStSn2tB5e2DESg2ljiJHjRol3ybA1+IY8g99tbilLZYWZ48gctng3pCN+D2I+GvY933Q06SRXFX8eOT8UgBofseFsPuY1T38e32Bnq0OV9PFMK1U8ZtCrHB5kv0H41GVUyD5g6ikepcsA3ZHcsNoU0yugI33PAK9rPHhU+wUbLG7855fUIv4mngvXy7JE3PDovLqNgb3jUoBxv9T34SjXu/xv4ze/D+F2o03v2x8tD3rP/02j9v3xgHn3llp+o0Tg+7A/OZ8ezBjyqF8eH+HE9XhxQaHwkaL0S9x87IscHv1/xeUlcrw88aFzxNh2sAdQ3dte65luD3t3xIX4eTuEIr2u+Yf3nzTykY0H7+B7j79A6OV5C/iQ4P0mKPuU2IO0TNgNXbpTAkV1sffApnuQgh6RsfIqMKfWIoGHRNtrIPmEm5SvrhKZqJwQn9IY58+FHNvYPNQ7hkTevDGZBu8TRqRSGrU8kWhXPPWRhZY4mk2BjG44IGsQiwQlNbCTzJBRqaFs9gFVO3xglZJ7rq2EFGUz1Br6e9MUFA0V1QnBobmoV5JLmaIncdDawrT7bB0/krhClt24mZbdtyOg7IbgQ920dtAVt0Ra5sVK0rbyZxXEjd0IIya0PmtB0O4tjK6sar+IY9wa10fomgcdUeEQIszjjaUJ7dAveLwyswVJsz67ngq7jUrzvc/FEBWQ5NlzBcm9l3O9NAo+i3SfU2LJcR9CVpbVNz+1wtLbNaK0Zprdp7HE657B9go1L00lg6COtbwhYjHsa19aTYND5OMHCTWqCt5A9x/7gZ4+8Xi9RvZ2A+kOfBTkJZVT5ESHIvScLqofeohh7shh6Asd7Tk8WVEBdRoOaBIE3Ct276JreNj3pEcFyJMArcxtXCJNgVFBIPYqxE+Ale9q8pvEE5iUm/3B7KfT1/PBwfaf0+v/xJZJ/dX0BVT/9Bw==);fillColor=none;strokeColor=#808080;strokeWidth=2;" vertex="1" parent="1">
                    <mxGeometry x="697" y="469" width="264" height="153" as="geometry"/>
                </mxCell>
                <mxCell id="71" value="" style="endArrow=none;html=1;strokeWidth=2;sketch=1;curveFitting=1;jiggle=2;" edge="1" parent="1">
                    <mxGeometry width="50" height="50" relative="1" as="geometry">
                        <mxPoint x="829" y="482" as="sourcePoint"/>
                        <mxPoint x="829" y="462" as="targetPoint"/>
                    </mxGeometry>
                </mxCell>
                <mxCell id="72" value="&lt;h1&gt;&lt;font face=&quot;Comic Sans MS&quot; style=&quot;font-size: 30px;&quot;&gt;&lt;b style=&quot;&quot;&gt;µ&lt;/b&gt;&lt;/font&gt;&lt;/h1&gt;" style="text;html=1;align=center;verticalAlign=middle;resizable=0;points=[];autosize=1;strokeColor=none;fillColor=none;strokeWidth=2;" vertex="1" parent="1">
                    <mxGeometry x="810" y="397" width="40" height="80" as="geometry"/>
                </mxCell>
                <mxCell id="75" value="&lt;h1&gt;&lt;font face=&quot;Comic Sans MS&quot; style=&quot;font-size: 30px;&quot;&gt;&lt;b style=&quot;&quot;&gt;µ*&lt;/b&gt;&lt;/font&gt;&lt;/h1&gt;" style="text;html=1;align=center;verticalAlign=middle;resizable=0;points=[];autosize=1;strokeColor=none;fillColor=none;strokeWidth=2;" vertex="1" parent="1">
                    <mxGeometry x="955" y="399" width="60" height="80" as="geometry"/>
                </mxCell>
                <mxCell id="76" value="" style="endArrow=none;html=1;strokeWidth=2;sketch=1;curveFitting=1;jiggle=2;" edge="1" parent="1">
                    <mxGeometry width="50" height="50" relative="1" as="geometry">
                        <mxPoint x="977" y="481" as="sourcePoint"/>
                        <mxPoint x="977" y="461" as="targetPoint"/>
                    </mxGeometry>
                </mxCell>
                <mxCell id="77" value="" style="endArrow=classic;html=1;sketch=1;curveFitting=1;jiggle=2;strokeWidth=2;strokeColor=#4D4D4D;" edge="1" parent="1">
                    <mxGeometry width="50" height="50" relative="1" as="geometry">
                        <mxPoint x="820" y="468" as="sourcePoint"/>
                        <mxPoint x="740" y="468" as="targetPoint"/>
                    </mxGeometry>
                </mxCell>
                <mxCell id="78" value="&lt;h1&gt;σ&lt;br&gt;&lt;/h1&gt;" style="text;html=1;align=center;verticalAlign=middle;resizable=0;points=[];autosize=1;strokeColor=none;fillColor=none;strokeWidth=2;" vertex="1" parent="1">
                    <mxGeometry x="770" y="422" width="40" height="70" as="geometry"/>
                </mxCell>
                <mxCell id="80" value="" style="endArrow=classic;html=1;sketch=1;curveFitting=1;jiggle=2;strokeWidth=2;strokeColor=#4D4D4D;" edge="1" parent="1">
                    <mxGeometry width="50" height="50" relative="1" as="geometry">
                        <mxPoint x="987" y="469" as="sourcePoint"/>
                        <mxPoint x="1067" y="469" as="targetPoint"/>
                    </mxGeometry>
                </mxCell>
                <mxCell id="81" value="&lt;h1&gt;&lt;font face=&quot;Comic Sans MS&quot;&gt;σ*&lt;/font&gt;&lt;br&gt;&lt;/h1&gt;" style="text;html=1;align=center;verticalAlign=middle;resizable=0;points=[];autosize=1;strokeColor=none;fillColor=none;strokeWidth=2;" vertex="1" parent="1">
                    <mxGeometry x="1002" y="414" width="50" height="80" as="geometry"/>
                </mxCell>
                <mxCell id="82" value="&lt;h1&gt;&lt;font face=&quot;Comic Sans MS&quot;&gt;&lt;font style=&quot;color: rgb(255, 128, 0);&quot;&gt;DD&lt;/font&gt;&lt;font style=&quot;color: rgb(0, 204, 0);&quot;&gt;C&lt;/font&gt;&lt;font style=&quot;color: rgb(255, 128, 0);&quot;&gt;DD&lt;/font&gt;&lt;/font&gt;&lt;/h1&gt;" style="text;html=1;align=center;verticalAlign=middle;resizable=0;points=[];autosize=1;strokeColor=none;fillColor=none;strokeWidth=2;" vertex="1" parent="1">
                    <mxGeometry x="770" y="600" width="110" height="80" as="geometry"/>
                </mxCell>
                <mxCell id="83" value="&lt;h1&gt;&lt;font face=&quot;Comic Sans MS&quot;&gt;&lt;font style=&quot;color: rgb(255, 128, 0);&quot;&gt;DD&lt;/font&gt;&lt;font style=&quot;color: rgb(0, 204, 0);&quot;&gt;C&lt;/font&gt;&lt;font style=&quot;color: rgb(51, 153, 255);&quot;&gt;*&lt;/font&gt;&lt;font style=&quot;color: rgb(255, 128, 0);&quot;&gt;DD&lt;/font&gt;&lt;/font&gt;&lt;/h1&gt;" style="text;html=1;align=center;verticalAlign=middle;resizable=0;points=[];autosize=1;strokeColor=none;fillColor=none;strokeWidth=2;" vertex="1" parent="1">
                    <mxGeometry x="937" y="600" width="120" height="80" as="geometry"/>
                </mxCell>
                <mxCell id="85" value="" style="shape=flexArrow;endArrow=classic;html=1;shadow=0;sketch=1;curveFitting=1;jiggle=2;fillColor=default;fillStyle=zigzag;strokeColor=#4D4D4D;exitX=1.018;exitY=0.525;exitDx=0;exitDy=0;exitPerimeter=0;entryX=0.017;entryY=0.525;entryDx=0;entryDy=0;entryPerimeter=0;strokeWidth=2;" edge="1" parent="1" source="82" target="83">
                    <mxGeometry width="50" height="50" relative="1" as="geometry">
                        <mxPoint x="891" y="642" as="sourcePoint"/>
                        <mxPoint x="931" y="642" as="targetPoint"/>
                    </mxGeometry>
                </mxCell>
                <mxCell id="88" value="&lt;h1&gt;&lt;span style=&quot;text-wrap: wrap;&quot;&gt;&lt;font face=&quot;Comic Sans MS&quot; style=&quot;color: rgb(0, 0, 0); font-size: 25px;&quot;&gt;ε&lt;/font&gt;&lt;/span&gt;&lt;br&gt;&lt;/h1&gt;" style="text;html=1;align=center;verticalAlign=middle;resizable=0;points=[];autosize=1;strokeColor=none;fillColor=none;strokeWidth=2;" vertex="1" parent="1">
                    <mxGeometry x="881" y="620" width="40" height="80" as="geometry"/>
                </mxCell>
                <mxCell id="89" value="" style="sketch=0;outlineConnect=0;fontColor=#232F3E;gradientColor=none;fillColor=#FF0000;strokeColor=none;dashed=0;verticalLabelPosition=bottom;verticalAlign=top;align=center;html=1;fontSize=12;fontStyle=0;aspect=fixed;pointerEvents=1;shape=mxgraph.aws4.question;" vertex="1" parent="1">
                    <mxGeometry x="899.1300000000001" y="592.05" width="15.74" height="29.95" as="geometry"/>
                </mxCell>
                <mxCell id="92" value="&lt;h1&gt;&lt;font style=&quot;font-size: 29px; color: rgb(0, 0, 153);&quot; face=&quot;Comic Sans MS&quot;&gt;A&lt;/font&gt;&lt;/h1&gt;" style="whiteSpace=wrap;html=1;aspect=fixed;strokeColor=#000099;strokeWidth=4;sketch=1;curveFitting=1;jiggle=2;fillColor=none;" vertex="1" parent="1">
                    <mxGeometry x="1226" y="337.5" width="80" height="80" as="geometry"/>
                </mxCell>
                <mxCell id="93" value="&lt;h1&gt;&lt;font style=&quot;font-size: 29px; color: rgb(0, 0, 153);&quot; face=&quot;Comic Sans MS&quot;&gt;E&lt;/font&gt;&lt;/h1&gt;" style="whiteSpace=wrap;html=1;aspect=fixed;strokeColor=#000099;strokeWidth=4;sketch=1;curveFitting=1;jiggle=2;fillColor=none;" vertex="1" parent="1">
                    <mxGeometry x="1466" y="337.5" width="80" height="80" as="geometry"/>
                </mxCell>
                <mxCell id="94" value="&lt;h1&gt;&lt;font style=&quot;font-size: 29px; color: rgb(0, 0, 153);&quot; face=&quot;Comic Sans MS&quot;&gt;A´&lt;/font&gt;&lt;/h1&gt;" style="whiteSpace=wrap;html=1;aspect=fixed;strokeColor=#000099;strokeWidth=4;sketch=1;curveFitting=1;jiggle=2;fillColor=none;" vertex="1" parent="1">
                    <mxGeometry x="1229" y="492.5" width="80" height="80" as="geometry"/>
                </mxCell>
                <mxCell id="95" value="" style="edgeStyle=elbowEdgeStyle;endArrow=none;html=1;rounded=0;endSize=8;startSize=8;endFill=0;sketch=1;curveFitting=1;jiggle=2;strokeColor=#000099;" edge="1" parent="1">
                    <mxGeometry width="50" height="50" relative="1" as="geometry">
                        <mxPoint x="1256" y="327.5" as="sourcePoint"/>
                        <mxPoint x="1516" y="287.5" as="targetPoint"/>
                        <Array as="points">
                            <mxPoint x="1256" y="197.5"/>
                        </Array>
                    </mxGeometry>
                </mxCell>
                <mxCell id="96" value="" style="endArrow=classic;html=1;sketch=1;curveFitting=1;jiggle=2;strokeColor=#000099;" edge="1" parent="1">
                    <mxGeometry width="50" height="50" relative="1" as="geometry">
                        <mxPoint x="1517" y="287.5" as="sourcePoint"/>
                        <mxPoint x="1516" y="327.5" as="targetPoint"/>
                    </mxGeometry>
                </mxCell>
                <mxCell id="97" value="" style="endArrow=classic;html=1;shadow=1;strokeColor=#000099;sketch=1;curveFitting=1;jiggle=2;" edge="1" parent="1">
                    <mxGeometry width="50" height="50" relative="1" as="geometry">
                        <mxPoint x="1456" y="377" as="sourcePoint"/>
                        <mxPoint x="1316" y="377" as="targetPoint"/>
                    </mxGeometry>
                </mxCell>
                <mxCell id="98" value="" style="endArrow=classic;html=1;sketch=1;curveFitting=1;jiggle=2;strokeColor=#000099;rounded=0;curved=1;" edge="1" parent="1">
                    <mxGeometry width="50" height="50" relative="1" as="geometry">
                        <mxPoint x="1326" y="487.5" as="sourcePoint"/>
                        <mxPoint x="1456" y="417.5" as="targetPoint"/>
                        <Array as="points">
                            <mxPoint x="1356" y="427.5"/>
                        </Array>
                    </mxGeometry>
                </mxCell>
                <mxCell id="99" value="" style="edgeStyle=elbowEdgeStyle;endArrow=none;html=1;rounded=0;endSize=8;startSize=8;endFill=0;sketch=1;curveFitting=1;jiggle=2;strokeColor=#000099;startArrow=classic;startFill=1;" edge="1" parent="1">
                    <mxGeometry width="50" height="50" relative="1" as="geometry">
                        <mxPoint x="1564" y="402.5" as="sourcePoint"/>
                        <mxPoint x="1564" y="352.5" as="targetPoint"/>
                        <Array as="points">
                            <mxPoint x="1584" y="552.5"/>
                        </Array>
                    </mxGeometry>
                </mxCell>
                <mxCell id="100" value="&lt;h2&gt;&lt;font style=&quot;color: rgb(0, 0, 153);&quot; face=&quot;Comic Sans MS&quot;&gt;e1&lt;/font&gt;&lt;/h2&gt;" style="text;html=1;align=center;verticalAlign=middle;resizable=0;points=[];autosize=1;strokeColor=none;fillColor=none;" vertex="1" parent="1">
                    <mxGeometry x="1366" y="325.5" width="40" height="70" as="geometry"/>
                </mxCell>
                <mxCell id="101" value="&lt;h2&gt;&lt;font style=&quot;color: rgb(0, 0, 153);&quot; face=&quot;Comic Sans MS&quot;&gt;e2&lt;/font&gt;&lt;/h2&gt;" style="text;html=1;align=center;verticalAlign=middle;resizable=0;points=[];autosize=1;strokeColor=none;fillColor=none;" vertex="1" parent="1">
                    <mxGeometry x="1586" y="342.5" width="40" height="70" as="geometry"/>
                </mxCell>
                <mxCell id="102" value="&lt;h2&gt;&lt;font style=&quot;color: rgb(0, 0, 153);&quot; face=&quot;Comic Sans MS&quot;&gt;a1&lt;/font&gt;&lt;/h2&gt;" style="text;html=1;align=center;verticalAlign=middle;resizable=0;points=[];autosize=1;strokeColor=none;fillColor=none;" vertex="1" parent="1">
                    <mxGeometry x="1366" y="238.5" width="40" height="70" as="geometry"/>
                </mxCell>
                <mxCell id="103" value="" style="endArrow=classic;html=1;sketch=1;curveFitting=1;jiggle=2;strokeColor=#000099;rounded=0;curved=1;" edge="1" parent="1">
                    <mxGeometry width="50" height="50" relative="1" as="geometry">
                        <mxPoint x="1476" y="437.5" as="sourcePoint"/>
                        <mxPoint x="1326" y="507.5" as="targetPoint"/>
                        <Array as="points">
                            <mxPoint x="1446" y="497.5"/>
                        </Array>
                    </mxGeometry>
                </mxCell>
                <mxCell id="104" value="&lt;h2&gt;&lt;font style=&quot;color: rgb(0, 0, 153);&quot; face=&quot;Comic Sans MS&quot;&gt;a´1&lt;/font&gt;&lt;/h2&gt;" style="text;html=1;align=center;verticalAlign=middle;resizable=0;points=[];autosize=1;strokeColor=none;fillColor=none;" vertex="1" parent="1">
                    <mxGeometry x="1366" y="383.5" width="50" height="70" as="geometry"/>
                </mxCell>
                <mxCell id="105" value="&lt;h2&gt;&lt;font style=&quot;color: rgb(0, 0, 153);&quot; face=&quot;Comic Sans MS&quot;&gt;e3&lt;/font&gt;&lt;/h2&gt;" style="text;html=1;align=center;verticalAlign=middle;resizable=0;points=[];autosize=1;strokeColor=none;fillColor=none;" vertex="1" parent="1">
                    <mxGeometry x="1416" y="457.5" width="40" height="70" as="geometry"/>
                </mxCell>
                <mxCell id="106" value="" style="shape=image;verticalLabelPosition=bottom;labelBackgroundColor=default;verticalAlign=top;aspect=fixed;imageAspect=0;image=data:image/png,iVBORw0KGgoAAAANSUhEUgAAA4kAAAHyCAYAAABGVIt+AAAABHNCSVQICAgIfAhkiAAAABl0RVh0U29mdHdhcmUAZ25vbWUtc2NyZWVuc2hvdO8Dvz4AACAASURBVHic7N15dBVVuvfxJxANBITIHJIwhUlBBgVRQIY0EDBAEEFQUMEBRYTbLWCLNAI26AVRG5xwHq7IECJgVEaZmxmBAGFMmIIhARJAIAmG5P2Dl922kqo6U9U5Vd/PWr1WL7NP1XM4yT77V7Vr76CioqIiAQAAAABAREpYXQAAAAAAwH8QEgEAAAAACiERAAAAAKAQEgEAAAAACiERAAAAAKAQEgEAAAAACiERAAAAAKAQEgEAAAAACiERAAAAAKAQEgEAAAAACiERAAAAAKAQEgEAAAAACiERAAAAAKAQEgEAAAAACiERAAAAAKAQEgEAAAAACiERAAAAAKAQEgEAAAAACiERAAAAAKAQEgEAAAAACiERAAAAAKAQEgEAAAAACiERAAAAAKAQEgEAAAAACiERAAAAAKAQEgEAAAAACiERAAAAAKAQEgEAAAAACiERAAAAAKAQEgEAAAAACiERAAAAAKAEW10AANeknzov07/cIMn7T8mu/RmSeeai1SUFhCYNqskdDapJ3ZoVZMKITlaXAwAA4LeCioqKiqwuAoAxCYt3y0MjZltdRsBrUKeyLPxgoDSsU9nqUgAAAPwOIREIEE+O+VY+m7/N6jJs5ey2cVKhfGmrywAAAPArPJMIBICfNqYSEH3gyTGJVpcAAADgdwiJQACY/sUGq0uwpYXLU2TCjBVWlwEAAOBXCIlAANi+56TVJdhW8oFTVpcAAADgVwiJgJ87kXFefsm6YHUZtpW8n5AIAADwe4REwM+lHj9rdQm2lno82+oSAAAA/AohEQAAAACgEBIBAAAAAAohEQAAAACgEBIBAAAAAAohEQAAAACgEBIBAAAAAEqw1QUA8J3xw2OsLsE0a7YcldWb06wuAwAAIOAREgGbmzCik9UlmKLjwE+sLgEAAMAWmG4KAAAAAFAIiQAAAAAAhZAIAAAAAFAIiQAAAAAAhZAIAAAAAFAIiQAAAAAAhZAIAAAAAFAIiQAAAAAAhZAIAAAAAFAIiQAAAAAAhZAIAAAAAFAIiQAAAAAAhZAIAAAAAFAIiQAAAAAAhZAIAAAAAFAIiQAAAAAAhZAIAAAAAFAIiQAAAAAAhZAIAAAAAFAIiQAAAAAAhZAIAAAAAFAIiQAAAAAAhZAIAAAAAFAIiQAAAAAAhZAIAAAAAFAIiQAAAAAAhZAIAAAAAFAIiQAAAAAAhZAIAAAAAFAIiQAAAAAAhZAIAAAAAFAIiQAAAAAAhZAIAAAAAFAIiQAAAAAAhZAIAAAAAFAIiQAAAAAAhZAIAAAAAFAIiQAAAAAAhZAIAAAAAFAIiQAAAAAAhZAIAAAAAFAIiQAAAAAAhZAIAAAAAFAIiQAAAAAAhZAIAAAAAFAIiQAAAAAAhZAIAAAAAFAIiQAAAAAAhZAIAAAAAFAIiQAAAAAAhZAIAAAAAFAIiQAAAAAAhZAIAAAAAFAIiQAAAAAAhZAIAAAAAFAIiQAAAAAAhZAIAAAAAFAIiQAAAAAAhZAIAAAAAFAIiQAAAAAAhZAIAAAAAFAIiQAAAAAAhZAIAAAAAFAIiQAAAAAAhZAIAAAAAFAIiQAAAAAAhZAIAAAAAFAIiQAAAAAAhZAIAAAAAFAIiQAAAAAAhZAIAAAAAFAIiQAAAAAAhZAIAAAAAFAIiQAAAAAAhZAIAAAAAFAIiQAAAAAAhZAIAAAAAFAIiQAAAAAAhZAIAAAAAFAIiQAAAAAAhZAIAAAAAFAIiQAAAAAAhZAIAAAAAFAIiQAAAAAAhZAIAAAAAFAIiQAAAAAAhZAIAAAAAFCCrS4AAADATlIOZ8neQ5my91Cm1aX4jQZ1KkvDOpWlQe3KElr6JqvLAaCDkAgAAOAFG3ccl3+8vVxWbky1uhS/FVmtvPzP461l1FP3WV0KAA2ERAAAAA89NGK2JCzebXUZfi/91HkZPWWx/LQxVRZ/OsjqcgAUg2cSAQAAPPCvL/5NQHTRkrUHZdZ3O60uA0AxCIkAAABuyjp7Sd74eJ3VZQSkgSPnyeZdJ6wuA8ANEBIBAADclLRyn/ySdcHqMgLWF4nbrS4BwA3wTCIAx5swY4WIiAQFBUlRUdGf/r8rvHEMreN46/j+pEnDcKlbo6LUq1VRSpdi1UMElvXbjlldQkBLPnDK6hIA3AAhEYDjTXxnpdUlQERqRdwqk0d2kUd6NLW6FMCwpJX7rC4hoCXvJyQC/ojppgAAv3D0ZI4MeGGu/O+Ha6wuBTDs7LnLVpcQ0C5evmJ1CQBugJAIAPArY6YtleX/Pmx1GQAAOBYhEQDgd7oM+kx2pPxidRkAADgSIREA4Jc+mbfN6hIAAHAkQiIAwC+lHM6yugQAAByJkAgA8Et7D2VaXQIAAI5ESARgC+GVb7G6BHjZ6exLVpcAAIAjsU8iAFtodnu4zP5+l9VlAIAhHVrVkfHDY6wuw2smvrNSVm9Os7oMAF5CSARgCw3rVLa6BABwSYdWdawuwWsmvrPS6hIAeBHTTQHYQs+/3Ca9Ot9udRkAAAABj5AIwDYWvD9QwsqVsroMAACAgEZIBGArOdtfkR4xt1ldBgAAQMAiJAKwne8+fFTGPtdRomtUsLoUAACAgMPCNQBsadLfOsukv3WW09mX2G/PYqx6CABAYCEkArC1yhXK2GoFwUDEqocAAAQWppsCAAAAABRCIgAAAABAISQCAAAAABRCIgAAAABAISQCAAAAABRCIgAAAABAISQCAAAAABRCIgAAAABAISQCAAAAABRCIgAAAABAISQCAAAAABRCIgAAAABAISQCAAAAABRCIgAAAABAISQCAAAAABRCIgAAAABAISQCAAAAABRCIgAAAABAISQCAAAAABRCIgAAAABAISQCAAAAABRCIgAAAABAISQCAAAAABRCIgAAAABAISQCAAAAABRCIgAAAABAISQCAAAAABRCIgAAAABAISQCAAAAABRCIgAAAABAISQCAAAAABRCIgAAAABAISQCAAAAABRCIgAAAABAISQCAAAAABRCIgAAAABAISQCAAAAABRCIgAAAABAISQCAAAAABRCIgAAAABAISQCAAAAABRCIgAAAABAISQCAAAAABRCIgAAAABAISQCAAAAABRCIgAAAABAISQCAAAAABRCIgAAAABAISQCAAAAABRCIgAAAABAISQCAAAAABRCIgAAAABAISQCAAAAABRCIgAAAABAISQCAAAAABRCIgAAAABAISQCAAAAABRCIgAAAABAISQCAAAAABRCIgAAAABAISQCAAAAABRCIgAAAABAISQCAAAAABRCIgAAAABAISQCAAAAAJRgbx5swowVsmbLUW8e0hR3NY6Q2+tWkaYNq8ldjSOsLgc+kLz/lGzYcUx2H8iUlMNZVpcDAPidBcv2yq79GZJy+LSczr5kdTkwWceBn1hdgqPVr11J7qhfVRrUqSyd29S1uhz4Ca+GRBGR1ZvTvH1In/t9zUP63y0f/rOXhdXA2+b+kCyDX0qU3LzfrC4FAPA7B4+ckX+8vVwSFu+2uhRYKBDHjnby+3//h7s3lW/e7mdhNfAXTDf9g4/mbJGgei9bXQa8pOsTn0v/v84hIAKAn/ngm83SoMtbBETAj8z+fhfjYIgIIbFYM2dvtroEeGjCjBWydN0hq8sAAPzB+V/z5Lnxi6wuA0AxJsxYYXUJsBghsRhDX1kku/ZnWF0G3LQj5Rd545N1VpcBALiBF6cusboEABomvrNSZn230+oyYCFCooYfVh2wugS4aUdKhlzOZYopAPgjnkED/B+zsZyNkKhh5aZUq0uAm1jBFAD805mcS3LwyBmrywCgY9c+ZtQ5GSFRw08bCImBavuek1aXAAC4gT0HM60uAYAByQdOWV0CLERIBGyszV21rC4BAHADDWpXsroEr2rSoJrVJQDwIkIiYFOhpW+SNnfWtLoMAMANNIyubHUJXmW39wM4HSERsKmu99WX0NI3WV0GAOAGGtWranUJXlWvVkWrSwDgRYREwKbeejnO6hIAADcw+YUu0rlNXavL8KpOrevKXwe1sboMAF5CSARs6Os3H5KaEWFWlwEAuIGXh3awugSfeHtsnHRqba/wCzgVIRGwkdqRt8qC9wfKgJ7NrC4FAPAHQ/rfLUWHXrO6DJ9a/uUTMudf/aV0KR53AAJZsNUFAPBMdI0K0rlNXbm7aZQ80LmRhJUrZXVJAID/r0fMbdLxnjrSrmUtuatxhNXlmKJfXBO5LbqKLF1/SNZtPSprtx6R87/mWV0WABd4NSROGNFJJozo5M1DekXHgZ/I6s1pVpeBAGH3q7wAEKhWff2UdGhVx+oyYECThtWkScNqMvqp+6wuxfEYB8MdTDcFAAAAACiERAAAAACAQkgEAAAAACiERAAAAACAQkgEAAAAACiERAAAAACAQkgEAAAAACiERAAAAACAQkgEAAAAACiERAAAAACAQkgEAAAAACiERAAAAACAQkgEAAAAACiERAAAAACAQkgEAAAAACiERAAAAACAQkgEAAAAACiERAAAAACAQkgEAAAAACiERAAAAACAQkgEAAAAACiERAAAAACAQkgEAAAAACiERAAAAACAQkgEAAAAACiERAAAAACAQkgEAAAAACiERAAAAACAQkgEAAAAACiERAAAAACAQkgEAAAAACiERAAAAACAQkgEAAAAACiERAAAAACAQkgEAAAAACiERAAAAACAQkgEAAAAACiERAAAAACAQkgEAAAAACiERAAAAACAQkgEAAAAACiERAAAAACAQkgEAAAAACiERAAAAACAQkgEAAAAACiERAAAAACAQkgEAAAAACiERAAAAACAQkgEAAAAACiERAAAAACAQkgEAAAAACiERAAAAACAQkgEAAAAACiERAAAAACAQkgEAAAAACiERAAAAACAQkgEAAAAACiERAAAAACAQkgEAAAAACiERAAAAACAQkgEAAAAACiERAAAAACAQkgEAAAAACiERAAAAACAQkgEAAAAACiERAAAAACAQkgEAAAAACiERAAAAACAQkgEAAAAACiERAAAAACAQkgEAAAAACiERAAAAACAQkgEAAAAACiERAAAAACAQkgEAAAAACiERAAAAACAQkgEAAAAACiERAAAAACAQkgEAAAAACiERAAAAACAQkgEAAAAACiERAAAAACAQkgEAAAAACiERAAAAACAQkgEAAAAACjBVhcAAAAAwP90HPiJ1SXADeOHx0iHVnU8OgYhEQAAAMCfrN6cZnUJcMP44TEeH4PppgAAAAAAhZAIAAAAAFAIiQAAAAAAhZAIAAAAAFBYuEYHqzoBgHXogwEAMB8hUQerOgGAdeiDAQAwH9NNAQAAAJtq0qCa1SUgABESAQAAAJtqGF3Z6hIQgAiJAAAAgE3Vq1XR6hIQgAiJAAAAgE11al1X/jqojdVlIMAQEgEAAAAbe3tsnHRqXdfqMhBACIkAAACAzS3/8gl555UeVpeBAOGIkFi/diWrS0CAuLNRdatLAGyHPhjeUiviVqtLAALa84/eK7Pf7i+Det8lLe+IlDKlb7a6JPgpR+yTeEf9qlaXgAARc2+01SUAtkMfDG+oWqms1IokJAKe6t+9ifTv3sTqMuDnHHEnsUEdlv6FMX8hJAJeRx8Mb7i3eQ2rSwAAx3BESOzcpq70iLnN6jLg5158up10bVff6jIA2+ncpq480ecuq8tAgJv8QherSwAAxwgqKioqsroIM+RfuSqlGo2zugz4sSv7/ik3BZe0ugzAtirfPVnO5FyyugwEoPHDY2TCiE5WlwEAjuGIO4kiIiE3l5QzW/8hfbvdYXUp8DMN6lSWfUv/RkAEfOz0lrEy/LF7rS4DAealZ9oTEAHAZI65k/h7Xy3YISs2HJZd+zIk+cApq8uBBZo0qCZ3NKgmdWtWYPABmOzrRTtl2fpD9MG4oepVysldjSPktujKMjC+mdzRoJrVJQGA4zgyJAIAAAAAbswx000BAAAAAPoIiQAAAAAAhZAIAAAAAFAIiQAAAAAAhZAIAAAAAFAIiQAAAAAAhZAIAAAAAFAIiQAAAAAAhZAIAAAAAFAIiQAAAAAAhZAIAAAAAFAIiQAAAAAAhZAIAAAAAFAIiQAAAAAAhZAIAAAAAFAIiQAAAAAAhZAIAAAAAFAIiQAAAAAAhZAIAAAAAFAIiQAAAAAAhZAIAAAAAFAIiQAAAAAAhZAIAAAAAFAIiQAAAAAAhZAIAAAAAFAIiQAAAAAAhZAIAAAAAFAIiQAAAAAAhZAIAAAAAFAIiQAAAAAAhZAIAAAAAFAIiQAAAAAAhZAIAAAAAFAIiQAAAAAAhZAIAAAAAFAIiQAAAAAAhZAIAAAAAFAIiQAAAAAAhZAIAAAAAFAIiQAAAAAAhZAIAAAAAFAIiQAAAAAAhZAIAAAAAFAIiQAAAAAAhZAIAAAAAFAIiQAAAAAAhZAIAAAAAFAIiQAAAAAAhZAIAAAAAFAIiQAAAAAAhZAIAAAAAFAIiQAAAAAAhZAIAAAAAFAIiQAAAAAAhZAIAAAAAFAIiQAAAAAAhZAIAAAAAFAIiQAAAAAAhZAIAAAAAFAIiQAAAAAAhZAIAAAAAFAIiQAAAAAAhZAIAAAAAFAIiQAAAAAAhZAIAAAAAFAIiQAAAAAAhZAIAAAAAFAIiQAAAAAAhZAIAAAAAFCCrS4AvrN161bZvHmzZGZmSnZ2tmRnZ8vZs2clOztbzp07J2XKlJEyZcpI2bJlpUyZMlKpUiVp2rSpNG/eXJo3by6hoaE+re/cuXOyf/9+n57DLCVLlpSWLVuacq69e/dKcnKyJCcny5EjRyQnJ0cuXLggFy5ckPz8fClfvryUKVNGQkNDpUyZMlK7dm1p27atdOjQQcLCwkyp0ZtycnLk559/lj179sju3bslKytLvd8LFy5I6dKl1e9ymTJlJCwsTFq0aCHt2rWTZs2aWV2+W44ePSq7du2SvXv3SkpKivqMz58/L5cvX5ayZctKaGio+tutXLmytG3bVu677z6pXbu21+vhb9V1p0+fltWrV8vBgwclOztbcnJyVP+bkZEhIiJhYWHqMyxXrpxER0dL06ZN5a677pI6der4vEbYy969e+XXX3+1ugyvqFGjhlSvXt3n5/G3vtbXcnNzZf369ZKcnCynT59W48Hr///SpUtSrly5//pOrV69urRo0UKaNWsmTZs2tfotwERBRUVFRVYXYaZRo0bJwoULi/35pEmTpH///iZW5D2nT5+WlStXyrp162T9+vVy8eJFj47XqFEj6d27tzz00ENSunRpL1X5H+vXr5dBgwZ5/bhWKF26tOzevdsnxz579qwsX75c1qxZI+vXr5fc3Fy3j9W4cWOJiYmRfv36SdWqVb1YpXdt3bpVVq9eLT/99JMcPnzY7eOEhYVJmzZtJC4uTrp06eLFCr0rNzdX1q5dK2vXrpUVK1bI2bNn3T5WeHi4dOrUSfr06SONGjXySn38rRqzdetWWbNmjaxZs0b27dvn0bHCwsKkffv28sQTT3jtczRbQkKCjBkzptif9+jRQ95++20TK/I9K8cY/fr1k+3bt/vk2Gb7+9//Lk8//bTXj+vvfa0vHDx4UL3nDRs2eHSskJAQadGihfTv31+6devmpQrN5cR+yV2OCom5ubnSokULyc/PL7ZNs2bNZP78+SZW5bns7Gx54403JDExUQoLC71+/LCwMOnfv7889thjUqVKFa8dl4GntrNnz8q0adN88rkGBwdLt27d5KmnnvKrL7cff/xRpk2bJsePH/f6sWvWrCmPP/649O3b1ycXPdzx22+/yaeffiozZ870+KLOjbRs2VIGDRokXbp0kaCgILePw9+qtsWLF8uUKVMkPT3dq8e9rlWrVvLkk09Kx44dPfoczda/f3/Ztm1bsT8PCQmRjRs3Srly5UysynesHmMQEosXKH2tNx08eFDGjRvns9+JWrVqyeDBg+XBBx+UUqVK+eQcvuC0fskTjnomcdGiRZqdt4jIzp07JTU11aSKPFNQUCAfffSRxMTESEJCgk8Cosi1qWYzZ86UmJgY+fjjj312HvzHjBkzpEOHDj77XAsKCiQpKUni4+Nl0KBBcubMGa+fwxXJycnSp08fGTFihE8CoojIsWPH5NVXX5V7771XEhISfHIOV3z33XcSExMj06ZN88mgReTana1hw4ZJp06dJDk52SfncLKDBw/KI488IsOHD/dZQBQR2bx5swwZMkT69OkTMN9P6enpmgMxEZH8/HxJSkoyqSLfs9sYwy6c1tdmZ2fLyy+/LN27d/fpRYOjR4/K+PHjJSYmRlatWuWz83iTE/slTzgqJBq9ejd37lwfV+K5FStWSGxsrEydOtVnnd4f5eXlyZQpU6R37958yflIamqqdOvWTWbMmOHRtFJXrF+/Xnr27OmzKXhaCgsL5b333pO+ffvKzp07TTnnxYsXZcyYMTJ+/Hi5evWqKef8vQsXLsjQoUPlhRdeUM+m+dqxY8ekX79+8u2335pyPrs7d+6cjBs3Tnr06CFbtmwx7by7du2SHj16yMyZM/3+Yt3s2bMNtfOHCzbeYqcxhh04ra+9evWqfPrpp/KXv/xF5s2bZ1ofkZWVJU8//bSMGjVKzp8/b8o53eXEfskTjgmJqamphgehCxYs8Osv4GnTpsmzzz4rx44ds+T8e/bskdjYWK60eNncuXOlV69ecujQIdPPnZWVJQ899JCpX2xZWVnyyCOPyNtvv21JWJs1a5b069fPo2dSXLVjxw6Ji4uT5cuXm3bO63777Td58cUXLQvHdnHixAnp3r27zJ4925J/xytXrsi0adPkkUcekcuXL5t+fiMKCwtl3rx5htru2bPHFhcd7TTGsAOn9bX5+fkyePBgef311y1bvGjhwoXSrVs3S8YwRjixX/KUY0Ki0V8MkWurKVrRsRgxffp0mTlzptVliMi1B/SXLl1qdRm2MGnSJBk7dqxpdw9v5PoXm9ErbZ5IT0+X+Ph43WkfvrZz50556KGH5Ny5cz4/1+rVq6V///6mXdEuzqxZs2T48OHioMfRvSYjI0MefvhhOXXqlNWlyLZt2+Sxxx6ztM8ozurVqyUnJ8dw+2+++caH1ZjDLmMMO3BaX/vbb7/JU0895fGiNN6QlZUlAwYMkCNHjlhdyp84sV/ylCO2wCgsLHT5DkliYqLExsb6qCL3vP/++/LOO++4/LpSpUrJnXfeKRERERIRESHh4eFStWpVOXfunJw7d07Onj0rBw4ckMOHD0taWprh4169elWGDRsm77//vl+vHOnv3nrrLfniiy9cft2tt94qzZs3l+rVq0tkZKRERERIaGionD17Vs6dOycnT56UzZs3u7x1wbhx46RixYo++0zT09Olf//+cvr0aZdf26RJE6ldu/Z//S5funRJcnJyJCcnR3bt2iWbNm1y6Q7LsWPHZMiQIfLVV1/57OH71atXy1NPPeXy60qVKiXNmjWTqKgoiYqKkurVq0ulSpXUsuVZWVmyfft22bp1q0vHXbZsmbz22msyduxYl2tyKk8CYt26daVu3boSFRUlVatWlRo1akhRUZHaGiMzM1NSUlJk3759Lj0+sHPnTnniiSfks88+85vFmESufX+64ttvv5UxY8ZIcHBgDknsMsawAyf2tUOHDpWNGze6/LrrY4jw8HCJiIiQ6tWrS1hYmJw5c0ZycnLkzJkzsm/fPjlw4IBkZmYaPm52drY88sgjMnv2bKlVq5bLdfmK0/olb3DE6qbLli2T5557zqXXlChRQjZt2iQVKlTwUVWu0Vuy948iIiKkW7du0q5dO2ndurXh12VnZ0tCQoLMnTvX8AIiISEhkpSU5Bf7euXn5+uu1hkXFyfTp083qSJtc+fOdenLo379+tK1a1dp37694f2Kzp49KytWrJCvv/7a8LL8ISEh8vXXX0vz5s0N12ZEbm6u9OjRQ44ePWr4NfHx8dKuXTtp37694X0et23bJgkJCfLDDz9IXl6eodd07txZPvjgA8N1GXXo0CF54IEHDNdRsWJFiYuLk/bt20v79u0NvSY3N1fWrVsnc+fOlTVr1hiubezYsTJ48GDD7b0pkP5W8/LypGfPni5dROvcubO0a9dO2rVrJxEREYZft2HDBvnmm29kyZIlhl/Tt29fef311w2396Xs7Gxp3bq1FBQUuPS66dOnS1xcnI+q8i07jDGKM3XqVPnoo4802yxdulSio6NNqqh4TuxrR48eLQsWLDDcvmnTptK5c2dp27atNG7c2PDrUlNT5f/+7/9k0aJFhqez1qlTR5YtW2b4HL7kxH7JGxwx3dTVqwcirs1d9rWsrCx59dVXDbUtUaKEDB48WJYuXSovvfSSSwFRRKRChQryzDPPyIoVK2TUqFGGrqDk5+fL6NGjmb7mopSUFMOfq8i1L4Mff/xRRowY4dKGthUrVpR+/fpJUlKSzJo1S6KionRfk5+fL8OHD/f6VLbRo0cbDohNmzaVpUuXyptvvinx8fGGA6KISIsWLWTKlCmyZcsWeeaZZwy9Zvny5fLll18aPocRly9flmeffdbwoKV3796ydOlSeeWVVwwPWkSubevQpUsX+fTTT2X16tXSrl07Q6+bPHmypKSkGD6PU02dOtVwQIyKipKEhAT54IMP5OGHH3YpIIqItG7dWt59911Zvny5NGjQwNBrEhIS5N///rdL5/GVhQsXujwQE3Hve9pfBPoYww6c2NeuWbPGcEC85ZZbZPLkyZKYmCjPPvusSwFRRCQ6OlomTJgg69atM3wHPC0tTd544w2XzuMrTuyXvMH2ITE7O9vtpXnnzJnj5Wrc88ILLxgarNesWVPdmfJ02lyJEiXk2WeflYSEBEN7I+7atcutKZNOdf78eXnuued0l0sXuRaWli9fbjjsaGnVqpX8+OOP0r17d922p06dkvfee8/jsKctuwAAIABJREFUc173xRdfGL478tJLL0liYqLHV6dDQ0Nl9OjR8tVXX8mtt96q2/6tt97y6kI2I0eONLTAVJUqVeSLL76QqVOnuhSGbyQyMlI+++wzw3eox48f79H57G7r1q3y1VdfGWr75JNPyqpVq7xyB7527dryww8/yIABAwy1//vf/y6XLl3y+Lyecvd7c926dS5NafMXdhhj2IHT+tqcnBx58cUXDbVt166dLF26VPr16+fxecuWLSvvvfee4ZkLH374oSUrp/+R0/olb7F9SPRkI3Ij+6n42ldffSWbNm3SbVevXj1JSEjw+vTAO+64Q+bMmSNVq1bVbfvmm2+6NI3QyYxuvN26dWuZPXu21K5d22vnLl26tLz99tsSExOj2/aTTz7xyr6FJ0+elP/93//VbXfzzTfLl19+6dYzJVpat24tn376qdx8882a7S5dumSoTiMWLVpkaHGK6tWrS0JCgrRt29Yr571u8ODBMm7cON12O3bsYLnvYuTm5srIkSN12wUFBcmkSZNceiTAqIkTJ8qTTz6p2+7UqVMyadIkr5/fFcnJyS5Nyf29oqIin20y70uBPsawAyf2tWPGjDF0QTMuLk4+/vhjQxf7XdG3b1/56KOPDM02Gz16tPz2229ePb8rnNgveYvtQ6LeH6TeFSArfzmOHTsmU6dO1W3XsGFDmT17ts+ebahRo4bMmjVLt11eXp5X7zzZ1aFDhwx9UbRv314+++wz3WDjjqCgIJkxY4Y0bNhQs11BQYH84x//8Ph8r7/+uu5Uj1KlSsmXX34pbdq08fh8N9KkSRN58803ddstWLBAdu3a5dG5rly5IlOmTNFtFxkZKQkJCS5PSTTq8ccflwcffFC33dSpU/3iLpS/mTRpkvzyyy+G2vXv399ndYwZM8bQ55iQkCAnTpzwWR169L4v9UJ0IF6sCOQxhh04sa9dtGiRrFixQrddfHy8TJ8+XUqWLOnR+YoTExNj6KLq4cOHZeHChT6pwQgn9kveYuuQuGPHDs2rB3fffbc8+uijEhoaWmybH374wbIlxmfMmKE7vz4sLEy++uorj6dN6KlVq5aMGjVKt93ixYv9du8ufzFx4kTd5zebNWsmn376qU9X1SpVqpShRUE2bNgge/fudfs827ZtMzTNdMaMGdKyZUu3z2NEt27dDE21ff/99z06z8cffyxZWVmabUqXLm34Lr0npkyZItWrV9dsk5OTwwbff3Ds2DFD/ybPP/+8V6Zx6Xn55ZelUqVKuu2s2MRb5NpzzFrPR4WEhMjDDz8s9913X7Ft0tPTDc2c8ReBPsawAyf2tdOmTdNt06pVK0MXRT3Vq1cvQ3dmXVlcx5uc2C95k61Dot5D4fHx8RIcHKy5clFubq5899133i5N18WLF2Xx4sW67f7617+atjraU089pbuCaV5ennz//fem1BOI1q5da6izMWvaWHR0tMTHx+u28+RvwMhV3q5duxqa/uoNI0aM0G3z008/ub134rlz5wytkvriiy9KtWrV3DqHq4YNG6bbJikpyYRKAoeRgVyVKlVcXtXSXeXLlzc0nXXu3LmWLCK2ePFizbATGxsroaGhuv1NIF21D+Qxhh04sa9dvXq17v6PQUFBLi2K56lXX31Vd8bTli1bLJnl4MR+yZtsGxLz8/M1w0pwcLD06NFDREQeeOABzWNZsbpRYmKiXLlyRbNNdHS0PPzwwyZVdO3fzEgHaNUVo0Dw9ddf67Z5/PHHdaeBetOgQYN02yxatMitgefBgwdlx44dmm1KlSolr7zyisvHdledOnUMBdKlS5e6dfzExETdGQD169eXgQMHunV8dzz44INSvnx5zTa7d+/mmeL/7+rVq4ZWnhw7dqxPpoMXJz4+XiIjIzXbZGVlubVnmqf0vid79uwpItfu5oeEhBTbbsmSJQFxZy3Qxxh24MS+1khYeeSRR0zdkqRGjRrSq1cv3XZWTK12Wr/kbbYNiUlJSZofaKdOndQUkJYtW2pOQ/j5558lNTXV6zVqMbKa3uTJk30217w4Xbt2lXLlymm22bp1q+FlqJ0kKytLVq9erdmmcuXKhhbK8KY77rhDd1uMM2fOuLXAgpEtJf7nf/7H6w/V67k+eNPi7h3xb775RvPnQUFBMmXKFAkKCnLr+O4IDg6W+++/X7cddxOvWb58ue6d5LvuusuS/bOMPPvo7mqb7tKbjlWxYkU1nSskJES6detWbFu96WH+ItDHGHbgtL42JydHd4GecuXKyQsvvODysT3Vt29f3TZ64x9vc2K/5G22DYl6Vw9+f2s5KChIevfurdnezCsgO3fu1F3KuVGjRtKiRQuTKvqPkJAQQ3sK/fzzzyZUE1jmzJmjuwqe3vMrvtKnTx/dNuvXr3fpmEamUZUpU8aSzdy7dOmi+++8efNml1dk27x5s+7fbps2beSOO+5w6bjeYGRa8YYNG0yoxP8ZuYv49NNPm1DJnxnZo2zPnj0mVPIf8+fP15xp0LNnz/+6oKl31yEQ7qwF8hjDDpzY186dO1d3DGHkTqYvNG/eXCpWrKjZ5sCBA27tVeguJ/ZL3mbLkJieni5bt24t9uflypWTjh07/td/e+ihhzSPOX/+fLeXuXaVkVWrunbtakIlN9a6dWvdNsnJySZUElh+/PFH3TZGpmz4gt4ARkRk3759Lh1z5cqVutMzOnXq5NPFeYoTEhKi+zdUWFgoBw4ccOm4Rj5jI1eZfaFFixa6z+WYHS78UV5enu4FkVKlSrm0Abc31a5dW3dxjN27d5v2fVVUVKQbqv/Yr7Vp00bzWfpdu3b59Z21QB9j2IET+9qVK1fqttG6G+Zr7dq10/x5QUGBad8xTuyXfMGWIVFv08wePXr8aWAaFRUlTZo0KfY1OTk58tNPP3mlPj1GApaVIfGPX343wmDzv509e1YOHz6s2aZJkya6gz9fCQ8Pl5o1a2q2cTUkGrlSasV0veuMXOxISUlx6Zh671lvEQtf01rBTeTa3V9v7IsZyIwErE6dOslNN91kUkV/prdNTF5enm5/4y3r1q3TXF0yOjpaGjVq9F//zcidNX/eaD7Qxxh24LS+trCwUHdsWLlyZa/vle0KI9tX7d6924RKnNkv+YL5l/B9rLCwUHcJ8OLu1vTq1UvzjzAxMVE6d+7sUX1G6O3R1rBhQ69uru6qSpUqyezZs+Xq1avFtilTpoyJFfm/NWvW6Lax8gtNRKRBgwaa03cyMjLk3Llzhrdb0fsSL1++vGV3Y0SuvV89rgTjs2fPypEjRzTbtGvXztK/DSPvOSUlRWrUqGFCNf7J3y/SiVxboVdvSlvlypVNqUVvClZxi7b06dNHPvnkk2Jft3DhQvn73/9uyUwDLXYYYwQ6J/a1KSkpulM1u3XrZurzl3/UpUsX3cX5wsPDTanFaf2Sr9juXa5evVrz6kFUVFSxV1ri4+Nl8uTJxYaflStXSnZ2tk+3nDh06JDuRqtWPIv4R77ez85ujNxVu/fee02opHj16tWTZcuWabZJSUkxdAcuIyNDd7nrli1bmr7w0u/VrVtXSpQooXnXaP/+/YaPZ2QqkNWfcf369XXb7Nu3z/IQZKWdO3fqtrnnnntMqKR44eHhpg22tFy4cEFzFeCgoKBiA1PdunXltttuK/ZCzPVFOqycPncjgT7GsAMn9rVG+iWrx2WhoaGW940izuyXfMV2IVHvCp/WUtTX72wU1wEVFhbK/PnzZciQIR7VqMVIR2Ck84F/MTLF4vbbbzehkuINGDBA94tVb5/M67Zv367bxsxtPm7kpptukjlz5mhuNaO1JPYfGfmMrX7Pd955p+6VXrPuQPkrI1O6jN5Nt7uFCxdq3t1o1aqV5rNZvXr10rxbn5iY6HeDsUAfY9iBE/tavRlmIowNr3Niv+QrtgqJFy5c0F30RW9hkPj4eM2rVL7uwI1MdapXr57Pzg/f0NsTyR8+0ypVqnhtKwoje0D5wxfanXfe6bVjGXnPVl8IKFWqlF9c6fVX2dnZcvLkSc02/vC36i/0VuTUmxLbq1cvmTp1arF31tauXSuZmZma20eYyQ5jDDtwYl+rNza86aabLH0MyZ84rV/yJVstXJOYmKh59eDOO+/Unf8dGxuruTR+Wlqaobsk7jLyIHPjxo19dn543/HjxzWf3xQx9vxCINF7XkTE+iu93qb3nqtUqWLJ0uQwLi0tTbcNIfGaffv2aS7sFBISovucdcWKFTWnrxcWFvrVsvN2GGPYgRP7Wr2+6frjE07nxH7Jl2z1GzV79mzNnxvZu8bIili+3M9IbwPnKlWqSOnSpX12fnifkcAUERFhQiXm0du/SkSkVq1avi/EJFeuXJGMjAzNNlatXAvj9PpfEULidXrLy/9+M3ktet/LRvasNIsdxhiBzol97aVLlzT3+xO5FhLhzH7Jl2wTEpOTkzWvtAQHB0v37t0NHUtvCdzvv/9e8vPzXarPqPPnz2v+3B8WK4BrtBY5uO6WW24xoRLz6L3nkJAQW131zMzM1G1Trlw5EyqBJ/T6XxFxxBQjPQUFBbJw4ULNNkYCk8i1FRm1Bm3p6emyZcsWl+rzBbuMMQKdE/taIxev9PZldAIn9ku+ZptRmt6Vt5iYGMPTD1q2bKk5EMjNzZXvvvvOpfqM0hukcBcx8OitVitivy81vfdst/d78eJF3TZ2uxBgRxcuXNBtw/Y+IkuWLJFff/212J+XK1fO8PY2ISEhEhsbq9kmISHBpfp8wS5jjEDnxL7WyMUrxobO7Jd8zRYhMT8/X5KSkjTb9OzZ06VjPvjgg5o/98V85KKiIs1fcBExdJsc/sWJX2p6v8dODIl2e892ZOSKPX2w/vdffHy8S9vb6C328uOPP0pubq7h43mbXcYYduDEvtZIv8TFK+f1S2awRUg0cvWgU6dOLh2zb9++mj/ftm2bpKenu3RMPUY6Aq4WBR6n3UnMy8vT3HtQxH6h2IkDFzviir2+zMxMWb9+vWYbvcHVH7Vu3Vrzzlp+fr4sWrTIpWN6k13GGHbgxL6WfkmfE/slM9giJOpdPbj//vslONi13T6ioqKkadOmmm30HmJ3FVex7eny5cu6bey075qRUGy3leeMfMZ2G7jYkZHBmNOv2CckJGguomHku/OPgoKCdO/EWbmYi13GGHbgxL7WSL/k9LGhE/slMwR8SMzMzJSNGzdqtnH16sF1RlY30rtj4gojV8huvvlmr50P5tDb/kLk2h5HduG09yti7D3zt+v/jFzgcPrnqDco6tOnj1vH1Zt+uXPnTklNTXXr2J6w0xjDDpzY1zI21Oe0fsksAR8S58yZo3n1oGrVqtKiRQu3jq03fzknJ0dWrVrl1rFvRG+JYwCA79AHa9u0aZPuFEi9QVVx6tatq7sB+ty5c906tifsNMZAYKJf0ubEfsksAR0Si4qKdD8cd68eiFybEtehQwfNNjxcDgBwAr3V/Fq2bOnRUvx6d+QWLFhg6p01xhiA/3Nav2Qm1ybR+5l///vfuvuxuXv14Lr4+Hj56aefiv35ypUrJTs7WypUqODRecyWkpLi8mpsrqhXr54sXrzYZ8cHgED27LPPyooVK3x2/BkzZsj999/vtePl5ubKkiVLNNsY3YNM6/VTpkwpdkphTk6OLFu2TLp27erReYxijAGn+fzzz2Xy5Mk+O/6AAQNk4sSJXjueE/slMwX0nUS9qwdNmzaVGjVqeHSOLl26aD4QXFBQIN9++61H5wAAwJ8tWLBAc4P34OBgjy88VqxYUdq0aaPZxszvW8YYgH9zYr9kpoANiRcuXJClS5dqtnH3YfLfCw4Olu7du2u2mTdvnsfnAQD4P6c+H6Q37bFTp05eWWFR76r/6tWrJTs72+Pz6GGMgUBCv3RjduuXzBawIXHRokVSUFBQ7M9LlizptemUDzzwgObP09LSZOfOnR6fx8iKj0ZWuYJ/MbJ/kZEV2wKFkQ7ZbvP3nfYZ25WRbQyMrIBqN6mpqbJr1y7NNt76vu3atatmH1JYWGhKaLLjGMMOnNjX0i/dmBP7JbMFbEjUW+62ffv2XtuLrWXLlpobaop450qfkf23tDb0hX8ysnG8ncJ/2bJlpUQJ7a7Fbr/HRvoaO33GdmXkAseFCxdMqMS/zJkzR/Pn5cqVk5iYGK+cKyQkRPfZHr16vMGOYww7cGJfy9jwxpzYL5ktIEPivn37ZO/evZptPH1Q9Y/0VjBLSkrSnBdthJEw4cSOINAZ2djXbp+r3u+y3b7EnXYhwK7og/+soKBAFi5cqNmmR48eLm8mr0VvGmd6erps3brVa+f7I7uOMezAiX0t/dKfObFfskJAhkS9h8lDQ0MlNjbWq+fU68Bzc3Pl+++/9+gcTrxC5gRGQqLdPle992y398vfrj2ULVtWt43T7iSuWLFCcnJyNNt449m837v33nt176zp3enzhF3HGHbgxL6WkPhnTuyXrBBwW2AUFBTIggULNNvExcV59eqBiEhUVJQ0bdpUc/7z/PnzPVoOu0SJEhISEqJ5tdBbHcHtt98uhw8fdvv1MTExcvz4ca/UYndGvtTs9jxB+fLl5cSJE8X+3G5f4mFhYbpt7Pae7chISPRWHzxz5ky3X7tgwQIZPXq0V+rQo7dqX1RUlDRv3tyr5wwKCpL4+Hj56KOPim3z/fffy4QJEww9o+YKO48x7MCJfa2Z/dLgwYNl8ODBbr02IyND7rvvPq/Uocdp/ZJVAi4kLlu2TPePoWbNmrJp0yavn/u2227T7MC3bt0qx44dk5o1a7p9jvDwcDl69GixPz916pQUFBR4/QsKvmMkJP7yyy8mVGIevfeck5Mjv/32m6HFmgJBaGiolChRQnNBnoyMDBMrgjvCw8N126Snp5tQiX84c+aMrFy5UrNNkyZNfPJ9GxERofnz/Px8SUpKkoceesir57X7GCPQObGvNdIvaV2UtRsn9ktWCbikYeRW7rRp00yo5MYSEhJk1KhRbr++Xr16miGxoKBA9uzZI82aNXP7HDCXkemmhw4dMqES8xiZHpOSkiJNmzY1oRpzlC9fXnP6y8GDB02sBu6oX7++bpvk5GQTKvEPRr5vf/jhB/nhhx9MqObP5s+f7/XBmN3HGHbgtL62atWqEhoaKpcvXy62ze7du6WwsFB30Tg7cGK/ZJWA+m3KzMyUdevWWV2Gpm+//daj5f3r1q2r28ZJgxQ7qFGjhm7HfeDAAZOqMUetWrV029jtPdeuXVvz57m5uUzR9nPR0dFSsmRJzTY7duwwqRrr+ftqfT///LOkpqZ67XhOGGPYgRP72ttuu03z53l5eba72Fwcp/VLVgqokDh//ny/3zA0KytLVq9e7fbrCYn2U6pUKWncuLFmm4yMDMnNzTWpIt+78847ddvY7Wqvkfe8f/9+EyqBu26++WaJiorSbPPrr786YmrXtm3bAmJqrd4iM65wwhjDDpzY10ZHR+u2ccLY0In9kpUCKiQGyj+63gO1Wlq0aKHbZvfu3W4fH9Yw8gD1nj17TKikeO+9957UrVtX83/Lli0zdKy7775bt43VIbGwsFAaN26s+X579Ohh+HhGPmOr3/O2bdt0P+NJkyZZWqPVjHyOTtjYPFBW6UtMTPTanTUnjDHswIl9rZH37ISQ6MR+yUoBExI3b94cEFcPRK4tzZudne3WayMiIqROnTqabVJTUzWfW4T/MXLlc+PGjSZUUjytBROu07sjel3ZsmV174r//PPPkpeXZ+h4vpCSkqJ7/kaNGhk+XsuWLXXbBMJnfPvtt5tQif8ysjrfTz/9ZEIl1snNzbXseR5X5eTkeOXzcMoYww6c2Nd27NhRt82KFStsEUyK48R+yWoBExID5QqfiLFNPrW0bdtWt82sWbPcPj7Md9ddd+m2WbRokQmVFE/vWatbbrlFqlevbvh4elc+8/LyZOnSpYaP523e/hKvUKGC7qqDW7ZskdOnTxs+prcZec+uBGM7at++vQQFBWm2Wbx4se4eXYHs+++/D6jp7964u+CkMUagc2JfW6lSJWnYsKFmm9OnT9simBTHif2S1QIiJObm5srixYutLsMlnjxYa+RKdkJCgly5csXtc8Bc1apV0106+dixY5ZNF0lPT9cd9DZp0sSlYxq5e2rl5tBGpgy6eldN7z0XFRVZOrjTG7gEBwdLvXr1TKrGP5UvX173d/3q1asyb948kyoyX2JiotUluGTVqlUe3Vlz2hjDDpzY1xoZG9r598Jp/ZI/CIgtMBYtWqS5wbyIyPTp0yUuLs6kikRee+01+eyzz4r9eVpamuzatcutJf7btWsnYWFhcu7cuWLbXLx4Ub777jvp06ePy8eHNWJjYzV/Z0REkpKSXA5j3mBkIQRXA1Pnzp1l/Pjxmhcz1q5dK+fOnTO0QbI3FRYWypo1a3TbGZ1ee13Xrl11N+JOSkqSp59+2qXjekNqaqqcPHlSs02jRo0csYS6nu7du+sO8mbNmiVDhgzRvesYaNLT02Xbtm2abQYMGCATJ040qaJr03ufeeaZYn9eWFgo8+fPlyFDhrh1fKeNMezAiX3tAw88IB9//LFmm7Vr18rJkyd1L0oHGif2S/4gIEYDerdsQ0NDJTY21qRqrunXr59uG3enr5QsWVIefvhh3Xbvvvuupc90wTWDBg3S/VJISEjQvDjgK3pftiLXLl64IiwsTHr27KnZ5urVq/L555+7dFxvWLt2re4VvpYtW0qpUqVcOm5MTIzUqFFDs01KSoolz8sYuQpr5Eq1E/Tt21dKly6t2eaXX36RuXPnmlSReWbPnq3b5oEHHjChkv/o0KGDVKhQQbONJ1O7nDbGsAMn9rX169fXfXSlqKjI0n08fcWJ/ZI/8PuQmJqaqjstrEePHhIcbO5N0ejoaN07K0auThbn0Ucf1Q0U6enp8q9//cut48N81atXl7/85S+abS5evCjvvPOOSRVdc+LECd27JlWqVJF77rnH5WM/+eSTum0++eQTOXPmjMvH9oSR5z/d+cIJCgqSRx99VLfdP//5T5eP7QmjU68efPBBE6rxf2XLlpX4+Hjddq+99pqlzz15W2Fhoe402sjISGnWrJlJFV1TsmRJ3c8jLS1Ntm/f7vKxnTrGCHRO7WsHDBig2yYpKUnWr1/v1vH9kRP7JX/h9yHRyJVas68eGD1vbm6u/Pjjj24du0qVKtKtWzfddp988omkpKS4dQ6Y7/HHH9dtM2vWLFNX2Xvvvfd02/Tp08etaXX16tXT3Q4jPz9f3njjDZeP7a6TJ0/qPn8UEhLi0vYXv9e/f3/du1AHDx409fmKBQsWSFZWlmabFi1a6O4R6CSDBg3SbXP58mUZN26c74sxyapVq3SfTe7bt69J1fy3/v3767Zx56q9U8cYduDEvrZnz54SHh6u2+6ll16Sy5cvu3UOf+PEfslf+HVILCws1J0GFxkZaWhvQV/o3bu3lCxZUrONJ78co0ePNtTub3/7myVTFOG6e+65R/dh9YKCAhk/frwp9ezbt8/Q76gnd5gee+wx3TaJiYny888/u30OV0yaNEkKCgo028TGxuoOPopTunRpQ19Yb731likPtefm5hqafmTVQNhf1a1b19AAYMWKFfL111+bUJHv6Q2mg4KCLLvbHB0dLbfddptmG1dXP3T6GCPQObWvNTI2PHXqlLz44osencdfOK1f8id+HRKXL1+ue/Wgd+/eJlXzZ+XLl5cOHTpotvFk76XIyEh59tlnddulpqbKwIED5cKFC26dB+YycudhzZo1MnbsWJ/X8o9//EO3zf3336+73LiW2NhYQ1uAPP300z7f/3PLli2yfPlyzTYlS5aUYcOGeXSe5557TncxnszMTBk8eLDPnyueOXOm7pXt8PBwQuINjBo1SsqWLavbbuLEiQG/wXl2drasXLlSs83dd98t1apVM6miPzNyZ82VFZOdPsawAyf2tT179jQ0tXLJkiUycuRIKSoq8uh8VnJiv+RP/DokGpkiYPXAxsj5PVkqfdiwYboPxoqI7N+/Xx577DFTphe89957jv5S8lTr1q1l4MCBuu3mzp0rH374oc/qmDBhgu6ziKVLlzYUJLUEBQXJm2++qXtn7vz58/L444/77Bmv48ePy4gRI3TbPfLIIxIdHe3RuSpVqiSTJ0/Wbbd37155/vnn5erVqx6drzgrV66UmTNn6rYbO3as3HzzzT6pIZCFhYXJ888/r9uuqKhIXnrpJUlKSvJ5Tenp6fLBBx94/bgLFizQvcPeq1cvr5/XFfHx8bp31lyZWsgYI/A5ta81uornokWLTLngnJeX55MZUE7sl/yJ34bE7Oxs3WX5/eEZmk6dOkm5cuU028yfP9/tKzmlS5eWt956y9BSyXv27JG4uDjdTdHddeXKFRk2bJi8/fbbUlhY6JNzOMWYMWMM3Z174403ZMKECV5fnGDcuHGGpsgNHTpUqlSp4vH5IiMjDYXNkydPSnx8vGzdutXjc/5ecnKy9O3bV3eBnAoVKsioUaO8cs7Y2Fjd1V1Frm0/8uijj8qpU6e8ct7rEhISZMiQIbqDonvvvVe6du3q1XPbyeDBg6Vly5a67QoLC2XkyJHyz3/+02d3LLZu3So9e/aUtLQ0rx9b79m8kJAQU7eAuJGKFStK+/btNdts27bN0EVMxhj24cS+tlGjRjJ06FBDbefNmycDBw6UjIwMr5z7jzIyMuSBBx7QvePnDqf1S/7Gb0NiQkKCbhAxsvqcrwUHB+sucJGVlWVoT7bitG3bVv72t78ZanvixAnp27evvPLKK16bA52fny+ff/65dOzYUZYuXWroNVWrVvXKue0qJCTEcPj/+uuvJS4uTvbv3+/xeQ8fPixxcXGGlpMODw/36v4+/fr10+1IRa79vQwYMEDefPNNj6/6Xr16Vd555x3p27evnD17Vrf9yJEjpUzVbg2FAAAMWElEQVSZMh6d8/deffVVQyF7y5Yt0rVrV1myZInH5zx//rwMGzZMxowZo9u2ZMmShq7CO1nJkiXlgw8+MDSdqbCwUL788kvp0qWLbNiwwWs17N+/X4YPHy4PP/yw4ccKjCxucd2uXbt0g2fnzp0lNDTU8DF9xchdg2+++Ua3DWMMe3FiXzty5Ehp27atobabNm2SLl26eHXLqdOnT8vkyZOlS5cucujQIUOvcWVaqBP7JX/jtyFR79ZscHCwX3TgIsYW9fD0VvPQoUOlU6dOhtt/88030rp1a3nllVdk9+7dbp0zLS1NPv74Y7nvvvtk8uTJkpmZaeh1lStXlqlTp7p1Tidp2rSpvPDCC4baHj16VLp37y5jx47V3VD2RpYvXy5Dhw6Vrl27yoEDB3Tbh4aGyocffuj1Zd9ff/11qV69um67wsJC+eCDD6R79+7y1Vdfufy87alTp2TGjBnSsWNHmT59uqGwGR8fb2hvMleULVtW3nrrLUNtL168KM8//7wMGjTIrWmLu3btknHjxsl9991n+GLOpEmTdPcaw7Vpp0ZWAb7ul19+kccee0z69esn8+bNc+sxgIsXL8r69evliSeekO7du+uuyPt7I0aMkObNmxtub2S/PaundF3XpUsX3TtrRgIgYwx7cWpf+69//UsiIyMNtc3NzZXJkydLx44d5d1333X7zmJycrK8/PLLcu+998rnn39u+IZE69atDd/9FHFmv+Rvgor8cI7C9u3bdQdr3bp1M30/OS2xsbGSmppa7M+Dg4Nly5Ytur9EWvLy8mTo0KGybt06l19bv3596dq1q0RFRUlkZKRUr15dIiIi5OTJk5KZmSkZGRmSmZkpx44dk5SUFNm/f79bdyJDQkJkzpw5cscdd7j8Wm/Iz8+XRo0aabaJi4uT6dOnm1SRvg8//NDlLSAiIyOle/fuUrt2balRo4ZERUXJrbfeKmlpaXLixAlJTU2Vw4cPy+HDhyUtLc3lz3LWrFnSqlUrl15j1KlTp2TgwIEuL1Jz//33S/PmzaVGjRoSGRkpNWvWlHPnzsmxY8ckLS1Njh49KocOHZJDhw65/OXXrl07+eyzz1x6jSs2bNggzzzzjEufQ7ly5aRHjx7SsGFDiYqKkqioKKlZs6YcOXJEjh8/LqmpqXLkyBE5fPiwHDp0yOUVjkeNGmVoYSxfCcS/1VWrVsnw4cNdnk5aqlQpuf/++6Vx48YSFRUl4eHhUrNmTbly5YpkZmbKqVOnJCMjQ06dOiUHDhyQlJQUt6cmxcbGuhRo8/PzpUWLFpq/mxUqVJCNGzfqPndjlvHjx8usWbM023z44YfF7kvLGMO4qVOnykcffaTZZunSpR4/x+0tTuxrjx8/Lo899phbfUbbtm2lbdu2akwYEREhlSpVkiNHjkhWVpb88ssvkpmZKYcOHZL9+/cbush8IzVr1pRFixYZWghMxJn9kj8yd3dYg4ws6ewvVw+u6927t+ZAv6CgQBITE+X/tXd3IU2GbRzA/zl0imzzYx+JEaFJLNRZZvmFYVgUKI1CywRhQaWEhSgFnlVEJ4pRlH1JdaCmTiuXTmfiJ1TQQWgf4IEVCWk50YViJ/Ue9DreN8pnzn08uf8PPHJ77meR1+7rvp/7ugwGg9NjBAYG4s6dOzh16pTDq1eLRkdHMTo66vTYjggODsatW7e8liD+q06cOIGgoCCcP3/e4feMj487dEh+ufz8/FBTU+O2BBH49bhJQ0MDCgoKlnW2qqOjwy09weLj491SCOR/paam4t69ezAYDA7vKtlsNsEvHGfl5+d7NUH8V2VmZqKurg6FhYWYm5tz+H0LCwtobW11ewXUrKwsVFdXL+s9HR0dghNqvV4vmokY8Ov7Vuhvw2g0/nUyxjnG6uWLsXb9+vUwGo0oKChYciHhT4aGhjA0NOSmO/slKioK9+/fdzhBBHwzLomR6B43/f79u2Cp2LCwMMGy0J7mSLNxR86BCZFIJLh27RrOnj274mu5UkREBJqamtyaXKxmhYWFXj8bFhwcjCtXrngkgKlUKjQ1NQn2F3K3zMxM3L17F1Kp1O1jJSYmoq6uzuUr/ctVXFyMCxcuePUe/mU6nQ6PHz8W3WKYwWDAjRs3ll050ZHHFPPy8py9LbfQ6XSCj9j19PT8sTce5xirny/GWqVSidbWVtEtbmzfvh1Go3FZZ6QB34tLYiW6JLGtrU1w9SAnJ0dUqwfAr+pGQgeIx8bGnD4f+Ltjx47BZDIhKirKJddzlr+/P4qKivD06VNs2rTJq/fyrzt06BBaWlqwceNGj4+dlJSErq4uj1a5DAkJgdFoRFFRkcvPPgpZ3Lm9ffs2FAqFx8aNi4uD2WzGnj17PDbmosjISDQ2NqKsrMzjY682GzZsgNFoRHFxsUPFp9wpJiYGDx8+dKrM/fj4OF68eLHka7RarVdikpDDhw8v+fsfP378ceeWcwzf4IuxNjg4GJWVlbh8+TJkMplHx/6dUqnEpUuXUF9fv+xk3RfjkliJLkl05B/P232L/saRFRxHDuI6SqvVwmQyoaSkRLAHnTvk5OSgs7MT5eXlHtmJ8QU6nQ7t7e2oqKhwaZXNv/H398eZM2dQX1/vlWa0UqkU5eXlaG9vd6jNgCts3rwZ7e3tOHLkiEfG+51Go8H169dRW1vrcMGBldq/fz/MZjMSExM9Mp4vkEgkKCsrQ2NjI3Q6ncfHV6lUuHjxIsxms9O7ms3NzYKtE8S2M7FIr9cL7qz9qX8g5xi+w1djbXZ2Njo6OrxSeEkqlaKoqAgWiwW5ublOXcMX45JYiSpJHB8fF+yPFh0djdjYWA/d0fLs3btXsBSvyWRyac87qVSK06dPo7e3FwUFBS677lJ27dqFtrY2VFdXO9Trj5ZHIpHg6NGj6O7uxr59+9wyhkajQUlJCfr7+3H8+HHBoOZu0dHRaGhoQGVlJZRKpcuv7+fnh8zMTNy8eROPHj0SRUXPnTt3wmKx4OTJk/D393f59YOCgpCXl4cnT56gqqpKFGXCV6MtW7agpaUFNTU1HinesW7dOlRUVODZs2crqsb78+dPwYRCIpGIdjK2du1apKWlLfmasbGx/+sbzDmGb/LFWBsREYGqqiqYTCaHWk+tlEwmQ35+Pnp7e1FeXu70o76+GJfETFSFax48eCD4mgMHDnjgTpyz2NRzqf/g3759Q2dnp8tXeJRKJc6dO4fS0lL09/djYGAAg4ODK372ec2aNdBqtUhNTUV6ejqSkpK4a+gharUaV69excePH2E2m2GxWDA8POz09aKjo6HT6ZCRkYHs7GwX3qnr6PV66PV6WCwW9PT0oLu7e9ntLxbJZDLEx8dj27ZtyM3N9cpOqZCAgACUlpbCYDCgq6sLFotlRf3ONBoNEhISkJycjIMHD4pisuIrdu/ejaysLIyMjKCvrw8DAwMYHh5ecclzhUKBlJQUpKSkID093WULc4ODg/jy5cuSr0lPT0d4eLhLxnMHvV4vWHSjubnZ3g6Ecwzf5auxVqvVora2Fp8+fUJfXx/6+/vx/PnzZVdo/l1AQAASExORmpqKtLQ0xMbGuuTRe1+MS2ImyhYY5DqLZxTevHmDt2/fYmZmBrOzs7DZbJibm4NCoYBcLodCoUBISAhkMhnkcjlCQ0MRExODjIwMhIaGevtj0H9NTk7CbDbjw4cPmJ6ehtVqxdTUFKampjA7O4uIiAio1WoolUqoVCpERkYiLi4OW7duFe2XmJCBgQG8fPkSk5OTsFqtmJmZwcTEBCYmJiCXy6FSqaDRaKBUKqHRaBAVFYWEhATExMR4+9adMj8/j87OTrx79w5WqxXT09P4+vUrpqamYLVaER4eDrVaDZVKZf/sWq0WSUlJbtmFJefNz89jeHgYr1+/xqtXr/D582d7/J2enkZgYOAf469CoYBarcaOHTuQkJDg7Y9BtCr5cqwdGRmx/7x//x4zMzOw2Wyw2WxYWFhAWFiYPS7J5XL7T1hYGHQ6HZKTkxEYGOjtj0FuxiSRiIiIiIiI7ER1JpGIiIiIiIi8i0kiERERERER2TFJJCIiIiIiIjsmiURERERERGTHJJGIiIiIiIjsmCQSERERERGRHZNEIiIiIiIismOSSERERERERHZMEomIiIiIiMiOSSIRERERERHZMUkkIiIiIiIiOyaJREREREREZMckkYiIiIiIiOyYJBIREREREZHdfwC4u86ZZmOR5QAAAABJRU5ErkJggg==;" vertex="1" parent="1">
                    <mxGeometry x="1196" y="582" width="523.37" height="288" as="geometry"/>
                </mxCell>
                <mxCell id="107" value="" style="endArrow=none;dashed=1;html=1;strokeWidth=2;strokeColor=#FF0000;rounded=0;curved=0;exitX=0.102;exitY=-0.058;exitDx=0;exitDy=0;exitPerimeter=0;" edge="1" parent="1">
                    <mxGeometry width="50" height="50" relative="1" as="geometry">
                        <mxPoint x="1229.632" y="812.9839999999999" as="sourcePoint"/>
                        <mxPoint x="1231.68" y="700" as="targetPoint"/>
                    </mxGeometry>
                </mxCell>
                <mxCell id="108" value="&lt;h1&gt;&lt;b&gt;&lt;font style=&quot;font-size: 18px;&quot; face=&quot;Comic Sans MS&quot;&gt;A&lt;/font&gt;&lt;/b&gt;&lt;/h1&gt;" style="text;html=1;align=center;verticalAlign=middle;resizable=0;points=[];autosize=1;strokeColor=none;fillColor=none;" vertex="1" parent="1">
                    <mxGeometry x="1211.68" y="611" width="40" height="70" as="geometry"/>
                </mxCell>
                <mxCell id="109" value="" style="endArrow=none;dashed=1;html=1;strokeWidth=2;strokeColor=#00CC00;" edge="1" parent="1">
                    <mxGeometry width="50" height="50" relative="1" as="geometry">
                        <mxPoint x="1237.68" y="700" as="sourcePoint"/>
                        <mxPoint x="1307.68" y="700" as="targetPoint"/>
                    </mxGeometry>
                </mxCell>
                <mxCell id="110" value="" style="endArrow=none;dashed=1;html=1;strokeWidth=2;strokeColor=#FF0000;rounded=0;curved=0;exitX=0.136;exitY=-0.038;exitDx=0;exitDy=0;exitPerimeter=0;" edge="1" parent="1">
                    <mxGeometry width="50" height="50" relative="1" as="geometry">
                        <mxPoint x="1235.616" y="814.0239999999999" as="sourcePoint"/>
                        <mxPoint x="1307.68" y="700" as="targetPoint"/>
                        <Array as="points"/>
                    </mxGeometry>
                </mxCell>
                <mxCell id="111" value="&lt;h1&gt;&lt;b&gt;&lt;font style=&quot;font-size: 18px;&quot; face=&quot;Comic Sans MS&quot;&gt;E&lt;/font&gt;&lt;/b&gt;&lt;/h1&gt;" style="text;html=1;align=center;verticalAlign=middle;resizable=0;points=[];autosize=1;strokeColor=none;fillColor=none;" vertex="1" parent="1">
                    <mxGeometry x="1252.68" y="645" width="30" height="70" as="geometry"/>
                </mxCell>
                <mxCell id="112" value="" style="endArrow=classic;html=1;strokeWidth=2;" edge="1" parent="1">
                    <mxGeometry width="50" height="50" relative="1" as="geometry">
                        <mxPoint x="1231.18" y="665" as="sourcePoint"/>
                        <mxPoint x="1231.18" y="695" as="targetPoint"/>
                    </mxGeometry>
                </mxCell>
                <mxCell id="113" value="" style="endArrow=none;dashed=1;html=1;strokeWidth=2;strokeColor=#FF0000;rounded=0;curved=0;" edge="1" parent="1">
                    <mxGeometry width="50" height="50" relative="1" as="geometry">
                        <mxPoint x="1277.68" y="810" as="sourcePoint"/>
                        <mxPoint x="1337.68" y="700" as="targetPoint"/>
                        <Array as="points"/>
                    </mxGeometry>
                </mxCell>
                <mxCell id="114" value="" style="endArrow=none;dashed=1;html=1;strokeWidth=2;strokeColor=#FF0000;rounded=0;curved=0;" edge="1" parent="1">
                    <mxGeometry width="50" height="50" relative="1" as="geometry">
                        <mxPoint x="1270.68" y="813" as="sourcePoint"/>
                        <mxPoint x="1307.68" y="700" as="targetPoint"/>
                        <Array as="points"/>
                    </mxGeometry>
                </mxCell>
                <mxCell id="115" value="" style="endArrow=none;dashed=1;html=1;strokeWidth=2;strokeColor=#00CC00;" edge="1" parent="1">
                    <mxGeometry width="50" height="50" relative="1" as="geometry">
                        <mxPoint x="1307.68" y="700" as="sourcePoint"/>
                        <mxPoint x="1337.68" y="700" as="targetPoint"/>
                    </mxGeometry>
                </mxCell>
                <mxCell id="116" value="&lt;h1&gt;&lt;b&gt;&lt;font style=&quot;font-size: 18px;&quot; face=&quot;Comic Sans MS&quot;&gt;E&lt;/font&gt;&lt;/b&gt;&lt;/h1&gt;" style="text;html=1;align=center;verticalAlign=middle;resizable=0;points=[];autosize=1;strokeColor=none;fillColor=none;" vertex="1" parent="1">
                    <mxGeometry x="1307.68" y="647" width="30" height="70" as="geometry"/>
                </mxCell>
                <mxCell id="117" value="&lt;h1&gt;&lt;b&gt;&lt;font style=&quot;font-size: 18px;&quot; face=&quot;Comic Sans MS&quot;&gt;A&lt;/font&gt;&lt;/b&gt;&lt;/h1&gt;" style="text;html=1;align=center;verticalAlign=middle;resizable=0;points=[];autosize=1;strokeColor=none;fillColor=none;" vertex="1" parent="1">
                    <mxGeometry x="1284.68" y="622" width="40" height="70" as="geometry"/>
                </mxCell>
                <mxCell id="118" value="" style="endArrow=classic;html=1;strokeWidth=2;" edge="1" parent="1">
                    <mxGeometry width="50" height="50" relative="1" as="geometry">
                        <mxPoint x="1306.18" y="668" as="sourcePoint"/>
                        <mxPoint x="1306.18" y="698" as="targetPoint"/>
                    </mxGeometry>
                </mxCell>
                <mxCell id="119" value="" style="endArrow=none;dashed=1;html=1;strokeWidth=2;strokeColor=#FF0000;rounded=0;curved=0;entryX=0.352;entryY=0.34;entryDx=0;entryDy=0;entryPerimeter=0;" edge="1" parent="1">
                    <mxGeometry width="50" height="50" relative="1" as="geometry">
                        <mxPoint x="1400" y="817" as="sourcePoint"/>
                        <mxPoint x="1378.22624" y="676.9200000000001" as="targetPoint"/>
                    </mxGeometry>
                </mxCell>
                <mxCell id="123" value="" style="endArrow=none;dashed=1;html=1;strokeWidth=2;strokeColor=#FF0000;rounded=0;curved=0;entryX=0.352;entryY=0.34;entryDx=0;entryDy=0;entryPerimeter=0;exitX=0.413;exitY=0.816;exitDx=0;exitDy=0;exitPerimeter=0;" edge="1" parent="1">
                    <mxGeometry width="50" height="50" relative="1" as="geometry">
                        <mxPoint x="1413.1518099999998" y="817.008" as="sourcePoint"/>
                        <mxPoint x="1428" y="677" as="targetPoint"/>
                    </mxGeometry>
                </mxCell>
                <mxCell id="126" value="&lt;h1&gt;&lt;b&gt;&lt;font style=&quot;font-size: 16px;&quot; face=&quot;Comic Sans MS&quot;&gt;A´&lt;/font&gt;&lt;/b&gt;&lt;/h1&gt;" style="text;html=1;align=center;verticalAlign=middle;resizable=0;points=[];autosize=1;strokeColor=none;fillColor=none;" vertex="1" parent="1">
                    <mxGeometry x="1351" y="674" width="40" height="70" as="geometry"/>
                </mxCell>
                <mxCell id="128" value="" style="endArrow=classic;html=1;strokeWidth=2;" edge="1" parent="1">
                    <mxGeometry width="50" height="50" relative="1" as="geometry">
                        <mxPoint x="1370" y="700" as="sourcePoint"/>
                        <mxPoint x="1374" y="675" as="targetPoint"/>
                        <Array as="points">
                            <mxPoint x="1370" y="700"/>
                        </Array>
                    </mxGeometry>
                </mxCell>
                <mxCell id="129" value="" style="endArrow=none;dashed=1;html=1;strokeWidth=2;strokeColor=#00CC00;" edge="1" parent="1">
                    <mxGeometry width="50" height="50" relative="1" as="geometry">
                        <mxPoint x="1377.68" y="676" as="sourcePoint"/>
                        <mxPoint x="1430" y="676" as="targetPoint"/>
                    </mxGeometry>
                </mxCell>
                <mxCell id="130" value="&lt;h1&gt;&lt;b&gt;&lt;font style=&quot;font-size: 18px;&quot; face=&quot;Comic Sans MS&quot;&gt;E&lt;/font&gt;&lt;/b&gt;&lt;/h1&gt;" style="text;html=1;align=center;verticalAlign=middle;resizable=0;points=[];autosize=1;strokeColor=none;fillColor=none;" vertex="1" parent="1">
                    <mxGeometry x="1390" y="652" width="30" height="70" as="geometry"/>
                </mxCell>
                <mxCell id="131" value="&lt;h1&gt;&lt;font style=&quot;font-size: 24px;&quot; face=&quot;Comic Sans MS&quot;&gt;&lt;b style=&quot;background-color: light-dark(#ffffff, var(--ge-dark-color, #121212));&quot;&gt;&lt;font style=&quot;color: rgb(0, 127, 255);&quot;&gt;*&lt;/font&gt;&lt;/b&gt;&lt;/font&gt;&lt;/h1&gt;" style="text;html=1;align=center;verticalAlign=middle;resizable=0;points=[];autosize=1;strokeColor=none;fillColor=none;" vertex="1" parent="1">
                    <mxGeometry x="1400" y="783" width="40" height="80" as="geometry"/>
                </mxCell>
            </root>
        </mxGraphModel>
    </diagram>
</mxfile>